M48
;GenerationSoftware,Autodesk,EAGLE,9.6.2*%
;CreationDate,2021-08-09T00:16:11Z*%
FMAT,2
ICI,OFF
METRIC,TZ,000.000
T7C0.350
T6C0.600
T5C0.650
T4C1.499
T3C1.702
T2C2.700
T1C3.988
%
G90
M71
T1
X152400Y19050
X123825Y19050
X95250Y19050
X76200Y19050
X57150Y19050
X76200Y38100
X38100Y19050
X19050Y19050
X228600Y38100
X209550Y38100
X190500Y38100
X171450Y38100
X152400Y38100
X133350Y38100
X114300Y38100
X95250Y38100
X57150Y38100
X38100Y38100
X19050Y38100
X228600Y57150
X209550Y57150
X190500Y57150
X171450Y57150
X152400Y57150
X133350Y57150
X114300Y57150
X95250Y57150
X76200Y57150
X57150Y57150
X38100Y57150
X19050Y57150
X228600Y76200
X209550Y76200
X190500Y76200
X19050Y76200
X76200Y76200
X114300Y76200
X38100Y76200
X152400Y76200
X95250Y76200
X57150Y76200
X171450Y76200
X133350Y76200
X171450Y19050
X228600Y19050
X209550Y19050
X190500Y19050
T2
X180975Y28575
X28575Y47625
X180975Y66675
X219075Y47625
X123825Y47625
X66675Y28575
X66675Y66675
T3
X138430Y57150
X128270Y57150
X157480Y57150
X147320Y57150
X176530Y57150
X166370Y57150
X195580Y57150
X185420Y57150
X214630Y57150
X204470Y57150
X233680Y57150
X223520Y57150
X24130Y38100
X13970Y38100
X43180Y38100
X33020Y38100
X62230Y38100
X52070Y38100
X81280Y38100
X71120Y38100
X100330Y38100
X90170Y38100
X119380Y38100
X109220Y38100
X138430Y38100
X128270Y38100
X157480Y38100
X147320Y38100
X176530Y38100
X166370Y38100
X195580Y38100
X185420Y38100
X214630Y38100
X204470Y38100
X233680Y38100
X223520Y38100
X24130Y19050
X13970Y19050
X43180Y19050
X33020Y19050
X62230Y19050
X52070Y19050
X81280Y19050
X71120Y19050
X100330Y19050
X90170Y19050
X128905Y19050
X118745Y19050
X157480Y19050
X147320Y19050
X176530Y19050
X166370Y19050
X195580Y19050
X185420Y19050
X214630Y19050
X166370Y76200
X233680Y19050
X223520Y19050
X24130Y76200
X13970Y76200
X43180Y76200
X33020Y76200
X62230Y76200
X52070Y76200
X81280Y76200
X71120Y76200
X100330Y76200
X90170Y76200
X119380Y76200
X109220Y76200
X138430Y76200
X128270Y76200
X157480Y76200
X147320Y76200
X176530Y76200
X204470Y19050
X195580Y76200
X185420Y76200
X214630Y76200
X204470Y76200
X233680Y76200
X223520Y76200
X24130Y57150
X13970Y57150
X43180Y57150
X33020Y57150
X62230Y57150
X52070Y57150
X81280Y57150
X71120Y57150
X100330Y57150
X90170Y57150
X119380Y57150
X109220Y57150
T4
X187960Y33020
X226060Y13970
X16510Y33020
X22860Y73660
X16510Y71120
X41910Y73660
X35560Y71120
X60960Y73660
X54610Y71120
X80010Y73660
X73660Y71120
X99060Y73660
X92710Y71120
X118110Y73660
X111760Y71120
X137160Y73660
X130810Y71120
X156210Y73660
X149860Y71120
X175260Y73660
X168910Y71120
X194310Y73660
X187960Y71120
X213360Y73660
X207010Y71120
X232410Y73660
X226060Y71120
X22860Y54610
X16510Y52070
X41910Y54610
X35560Y52070
X60960Y54610
X54610Y52070
X80010Y54610
X73660Y52070
X99060Y54610
X92710Y52070
X118110Y54610
X111760Y52070
X137160Y54610
X130810Y52070
X156210Y54610
X149860Y52070
X175260Y54610
X168910Y52070
X194310Y54610
X187960Y52070
X213360Y54610
X207010Y52070
X232410Y54610
X226060Y52070
X22860Y35560
X41910Y35560
X35560Y33020
X60960Y35560
X54610Y33020
X80010Y35560
X73660Y33020
X99060Y35560
X92710Y33020
X118110Y35560
X111760Y33020
X137160Y35560
X130810Y33020
X156210Y35560
X149860Y33020
X175260Y35560
X168910Y33020
X194310Y35560
X213360Y35560
X207010Y33020
X232410Y35560
X226060Y33020
X22860Y16510
X16510Y13970
X41910Y16510
X35560Y13970
X60960Y16510
X54610Y13970
X80010Y16510
X73660Y13970
X99060Y16510
X92710Y13970
X127635Y16510
X121285Y13970
X156210Y16510
X149860Y13970
X175260Y16510
X168910Y13970
X194310Y16510
X187960Y13970
X213360Y16510
X207010Y13970
X232410Y16510
T5
X44735Y82130
X50515Y82130
T6
X51945Y81631
X43305Y85781
X51945Y85781
X43305Y81631
T7
X51308Y43688
X44196Y43688
X40767Y50165
X45466Y55118
X47879Y54737
X41656Y41402
X13208Y42926
X56971Y48336
X60706Y48514
X63246Y50673
X86577Y70268
X14986Y83185
X33782Y83185
X46101Y79756
X49149Y79756
X51816Y83312
X72136Y83185
X91186Y83185
X110236Y83185
X129286Y83185
X148336Y83185
X167386Y83185
X186436Y83185
X205486Y83185
X224536Y83185
X232664Y60452
X213614Y60452
X194564Y60452
X175514Y60452
X156464Y60452
X137414Y60452
X118364Y60452
X99314Y60452
X80264Y60452
X61214Y60452
X42164Y60452
X23114Y60452
X34036Y45085
X72136Y45085
X14986Y45085
X91186Y45085
X110236Y45085
X129286Y45085
X148336Y45085
X167386Y45085
X186436Y45085
X205486Y45085
X224536Y45085
X109728Y62992
X213614Y22352
X49428Y61468
X47041Y59612
X86995Y65786
X47041Y61468
X87884Y29769
X48260Y24091
X42418Y83058
X86360Y71374
X80264Y68072
X52832Y79756
X49836Y40640
X82296Y48717
X53975Y49236
X87757Y67056
X44196Y51816
X51818Y42162
X82296Y63881
X86233Y65024
X44704Y52832
X44414Y40640
X14224Y61468
X43434Y50800
X89535Y68961
X49149Y78662
X48006Y52578
X13716Y41656
X48260Y20801
X50038Y42164
X89662Y31572
X50800Y41351
X42205Y44745
X49428Y59612
X86106Y47244
X23114Y22352
X44414Y41504
X42164Y22352
X61214Y22352
X86995Y48006
X42164Y78662
X12192Y82042
X23622Y80518
X31242Y82042
X41148Y83312
X69342Y82042
X56134Y83947
X61722Y80518
X80772Y80518
X88392Y82042
X99822Y80518
X107442Y82042
X118872Y80518
X126492Y82042
X137922Y80518
X145542Y82042
X156972Y80518
X164592Y82042
X176022Y80518
X183642Y82042
X195072Y80518
X202692Y82042
X214122Y80518
X221742Y82042
X233172Y80518
X235458Y61468
X224028Y62992
X216408Y61468
X204978Y62992
X197485Y61468
X185928Y62992
X178308Y61468
X166878Y62992
X159258Y61468
X140208Y61468
X128778Y62992
X147828Y62992
X121285Y61468
X102108Y61468
X90678Y62992
X83185Y61468
X71628Y62992
X64135Y61468
X52578Y62992
X45085Y61468
X33528Y62992
X25908Y61468
X14478Y62992
X23622Y42418
X31242Y43942
X61722Y42418
X69342Y43942
X107315Y43942
X80772Y42418
X88392Y43942
X99822Y42418
X118872Y42418
X126492Y43942
X137922Y42418
X145542Y43942
X156972Y42418
X164592Y43942
X176022Y42418
X183642Y43942
X195072Y42418
X202692Y43942
X214122Y42418
X221742Y43942
X233172Y42418
X235585Y23368
X232664Y22352
X224028Y24892
X216535Y23368
X204978Y24892
X197485Y23368
X185928Y24892
X178435Y23368
X166878Y24892
X159385Y23368
X147828Y24892
X130810Y23368
X119126Y24892
X102235Y23368
X90678Y24892
X83185Y23368
X71628Y24892
X64135Y23368
X52578Y24892
X45085Y23368
X33528Y24892
X26035Y23368
X14478Y24892
X47625Y47625
X45847Y47625
X45847Y45847
X45847Y49403
X47625Y45847
X49403Y45847
X47625Y49403
X49403Y49403
X49403Y47625
X80264Y22352
X99314Y22352
X128016Y22352
X156464Y22352
X175514Y22352
X194564Y22352
X53848Y44958
M30