G04 EAGLE Gerber RS-274X export*
G75*
%MOMM*%
%FSLAX34Y34*%
%LPD*%
%INBottom Copper*%
%IPPOS*%
%AMOC8*
5,1,8,0,0,1.08239X$1,22.5*%
G01*
%ADD10C,2.247900*%
%ADD11R,1.700000X1.100000*%
%ADD12R,1.800000X0.820000*%
%ADD13R,0.800000X0.550000*%
%ADD14R,1.100000X1.700000*%
%ADD15R,0.550000X0.800000*%
%ADD16R,0.300000X1.150000*%
%ADD17R,0.600000X1.150000*%
%ADD18C,1.000000*%
%ADD19C,4.500000*%
%ADD20R,0.550000X0.550000*%
%ADD21R,0.300000X1.300000*%
%ADD22R,1.300000X0.300000*%
%ADD23R,5.200000X5.200000*%
%ADD24R,1.400000X1.200000*%
%ADD25R,1.550000X0.600000*%
%ADD26R,2.000000X1.500000*%
%ADD27R,1.360000X1.230000*%
%ADD28C,0.152400*%
%ADD29C,0.550000*%
%ADD30C,0.610000*%
%ADD31C,0.600000*%
%ADD32C,0.300000*%


D10*
X228600Y736600D03*
X165100Y711200D03*
D11*
X261620Y786620D03*
X261620Y752620D03*
D12*
X160500Y820300D03*
X160500Y805300D03*
X220500Y820300D03*
X220500Y805300D03*
D13*
X131710Y820420D03*
X142610Y820420D03*
D10*
X419100Y736600D03*
X355600Y711200D03*
D11*
X452120Y786620D03*
X452120Y752620D03*
D12*
X351000Y820300D03*
X351000Y805300D03*
X411000Y820300D03*
X411000Y805300D03*
D13*
X322210Y820420D03*
X333110Y820420D03*
D10*
X609600Y736600D03*
X546100Y711200D03*
D11*
X642620Y786620D03*
X642620Y752620D03*
D12*
X541500Y820300D03*
X541500Y805300D03*
X601500Y820300D03*
X601500Y805300D03*
D13*
X546470Y833120D03*
X535570Y833120D03*
D10*
X800100Y736600D03*
X736600Y711200D03*
D11*
X833120Y786620D03*
X833120Y752620D03*
D12*
X732000Y820300D03*
X732000Y805300D03*
X792000Y820300D03*
X792000Y805300D03*
D13*
X703210Y820420D03*
X714110Y820420D03*
D10*
X990600Y736600D03*
X927100Y711200D03*
D11*
X1023620Y786620D03*
X1023620Y752620D03*
D12*
X922500Y820300D03*
X922500Y805300D03*
X982500Y820300D03*
X982500Y805300D03*
D13*
X893710Y820420D03*
X904610Y820420D03*
D10*
X1181100Y736600D03*
X1117600Y711200D03*
D11*
X1214120Y786620D03*
X1214120Y752620D03*
D12*
X1113000Y820300D03*
X1113000Y805300D03*
X1173000Y820300D03*
X1173000Y805300D03*
D13*
X1084210Y820420D03*
X1095110Y820420D03*
D10*
X1371600Y736600D03*
X1308100Y711200D03*
D11*
X1404620Y786620D03*
X1404620Y752620D03*
D12*
X1303500Y820300D03*
X1303500Y805300D03*
X1363500Y820300D03*
X1363500Y805300D03*
D13*
X1274710Y820420D03*
X1285610Y820420D03*
D10*
X1562100Y736600D03*
X1498600Y711200D03*
D11*
X1595120Y786620D03*
X1595120Y752620D03*
D12*
X1494000Y820300D03*
X1494000Y805300D03*
X1554000Y820300D03*
X1554000Y805300D03*
D13*
X1465210Y820420D03*
X1476110Y820420D03*
D10*
X1752600Y736600D03*
X1689100Y711200D03*
D11*
X1785620Y786620D03*
X1785620Y752620D03*
D12*
X1684500Y820300D03*
X1684500Y805300D03*
X1744500Y820300D03*
X1744500Y805300D03*
D13*
X1655710Y820420D03*
X1666610Y820420D03*
D10*
X1943100Y736600D03*
X1879600Y711200D03*
D11*
X1976120Y786620D03*
X1976120Y752620D03*
D12*
X1875000Y820300D03*
X1875000Y805300D03*
X1935000Y820300D03*
X1935000Y805300D03*
D13*
X1846210Y820420D03*
X1857110Y820420D03*
D10*
X2133600Y736600D03*
X2070100Y711200D03*
D11*
X2166620Y786620D03*
X2166620Y752620D03*
D12*
X2065500Y820300D03*
X2065500Y805300D03*
X2125500Y820300D03*
X2125500Y805300D03*
D13*
X2036710Y820420D03*
X2047610Y820420D03*
D10*
X2324100Y736600D03*
X2260600Y711200D03*
D11*
X2358390Y786620D03*
X2358390Y752620D03*
D12*
X2256000Y820300D03*
X2256000Y805300D03*
X2316000Y820300D03*
X2316000Y805300D03*
D13*
X2227210Y820420D03*
X2238110Y820420D03*
D10*
X228600Y546100D03*
X165100Y520700D03*
D11*
X261620Y596120D03*
X261620Y562120D03*
D12*
X220500Y614800D03*
X220500Y629800D03*
X160500Y614800D03*
X160500Y629800D03*
D13*
X238390Y614680D03*
X249290Y614680D03*
D10*
X419100Y546100D03*
X355600Y520700D03*
D11*
X452120Y596120D03*
X452120Y562120D03*
D12*
X411000Y614800D03*
X411000Y629800D03*
X351000Y614800D03*
X351000Y629800D03*
D13*
X428890Y614680D03*
X439790Y614680D03*
D10*
X609600Y546100D03*
X546100Y520700D03*
D11*
X642620Y596120D03*
X642620Y562120D03*
D12*
X601500Y614800D03*
X601500Y629800D03*
X541500Y614800D03*
X541500Y629800D03*
D13*
X619390Y614680D03*
X630290Y614680D03*
D10*
X800100Y546100D03*
X736600Y520700D03*
D11*
X833120Y596120D03*
X833120Y562120D03*
D12*
X792000Y614800D03*
X792000Y629800D03*
X732000Y614800D03*
X732000Y629800D03*
D13*
X809890Y614680D03*
X820790Y614680D03*
D10*
X990600Y546100D03*
X927100Y520700D03*
D11*
X1023620Y596120D03*
X1023620Y562120D03*
D12*
X982500Y614800D03*
X982500Y629800D03*
X922500Y614800D03*
X922500Y629800D03*
D13*
X1000390Y614680D03*
X1011290Y614680D03*
D10*
X1181100Y546100D03*
X1117600Y520700D03*
D11*
X1214120Y596120D03*
X1214120Y562120D03*
D12*
X1173000Y614800D03*
X1173000Y629800D03*
X1113000Y614800D03*
X1113000Y629800D03*
D13*
X1190890Y614680D03*
X1201790Y614680D03*
D10*
X1371600Y546100D03*
X1308100Y520700D03*
D11*
X1404620Y596120D03*
X1404620Y562120D03*
D12*
X1363500Y614800D03*
X1363500Y629800D03*
X1303500Y614800D03*
X1303500Y629800D03*
D13*
X1381390Y614680D03*
X1392290Y614680D03*
D10*
X1562100Y546100D03*
X1498600Y520700D03*
D11*
X1595120Y596120D03*
X1595120Y562120D03*
D12*
X1554000Y614800D03*
X1554000Y629800D03*
X1494000Y614800D03*
X1494000Y629800D03*
D13*
X1571890Y614680D03*
X1582790Y614680D03*
D10*
X1752600Y546100D03*
X1689100Y520700D03*
D11*
X1785620Y596120D03*
X1785620Y562120D03*
D12*
X1744500Y614800D03*
X1744500Y629800D03*
X1684500Y614800D03*
X1684500Y629800D03*
D13*
X1762390Y614680D03*
X1773290Y614680D03*
D10*
X1943100Y546100D03*
X1879600Y520700D03*
D11*
X1976120Y596120D03*
X1976120Y562120D03*
D12*
X1935000Y614800D03*
X1935000Y629800D03*
X1875000Y614800D03*
X1875000Y629800D03*
D13*
X1952890Y614680D03*
X1963790Y614680D03*
D10*
X2133600Y546100D03*
X2070100Y520700D03*
D11*
X2169160Y596120D03*
X2169160Y562120D03*
D12*
X2125500Y614800D03*
X2125500Y629800D03*
X2065500Y614800D03*
X2065500Y629800D03*
D13*
X2143390Y614680D03*
X2154290Y614680D03*
D10*
X2324100Y546100D03*
X2260600Y520700D03*
D11*
X2357120Y596120D03*
X2357120Y562120D03*
D12*
X2316000Y614800D03*
X2316000Y629800D03*
X2256000Y614800D03*
X2256000Y629800D03*
D13*
X2333890Y614680D03*
X2344790Y614680D03*
D10*
X228600Y355600D03*
X165100Y330200D03*
D11*
X261620Y405620D03*
X261620Y371620D03*
D12*
X160500Y439300D03*
X160500Y424300D03*
X220500Y439300D03*
X220500Y424300D03*
D13*
X131710Y439420D03*
X142610Y439420D03*
D10*
X419100Y355600D03*
X355600Y330200D03*
D14*
X384320Y330200D03*
X418320Y330200D03*
D12*
X351000Y439300D03*
X351000Y424300D03*
X411000Y439300D03*
X411000Y424300D03*
D13*
X322210Y439420D03*
X333110Y439420D03*
D10*
X609600Y355600D03*
X546100Y330200D03*
D11*
X642620Y405620D03*
X642620Y371620D03*
D12*
X541500Y439300D03*
X541500Y424300D03*
X601500Y439300D03*
X601500Y424300D03*
D15*
X525780Y447410D03*
X525780Y436510D03*
D10*
X800100Y355600D03*
X736600Y330200D03*
D11*
X833120Y405620D03*
X833120Y371620D03*
D12*
X732000Y439300D03*
X732000Y424300D03*
X792000Y439300D03*
X792000Y424300D03*
D13*
X703210Y439420D03*
X714110Y439420D03*
D10*
X990600Y355600D03*
X927100Y330200D03*
D11*
X1023620Y405620D03*
X1023620Y371620D03*
D12*
X922500Y439300D03*
X922500Y424300D03*
X982500Y439300D03*
X982500Y424300D03*
D13*
X893710Y439420D03*
X904610Y439420D03*
D10*
X1181100Y355600D03*
X1117600Y330200D03*
D11*
X1214120Y405620D03*
X1214120Y371620D03*
D12*
X1113000Y439300D03*
X1113000Y424300D03*
X1173000Y439300D03*
X1173000Y424300D03*
D13*
X1084210Y439420D03*
X1095110Y439420D03*
D10*
X1371600Y355600D03*
X1308100Y330200D03*
D11*
X1404620Y405620D03*
X1404620Y371620D03*
D12*
X1303500Y439300D03*
X1303500Y424300D03*
X1363500Y439300D03*
X1363500Y424300D03*
D13*
X1274710Y439420D03*
X1285610Y439420D03*
D10*
X1562100Y355600D03*
X1498600Y330200D03*
D11*
X1595040Y405980D03*
X1595040Y371980D03*
D12*
X1494000Y439300D03*
X1494000Y424300D03*
X1554000Y439300D03*
X1554000Y424300D03*
D13*
X1465210Y439420D03*
X1476110Y439420D03*
D10*
X1752600Y355600D03*
X1689100Y330200D03*
D11*
X1785620Y405620D03*
X1785620Y371620D03*
D12*
X1684500Y439300D03*
X1684500Y424300D03*
X1744500Y439300D03*
X1744500Y424300D03*
D13*
X1655710Y439420D03*
X1666610Y439420D03*
D10*
X1943100Y355600D03*
X1879600Y330200D03*
D11*
X1976120Y405620D03*
X1976120Y371620D03*
D12*
X1875000Y439300D03*
X1875000Y424300D03*
X1935000Y439300D03*
X1935000Y424300D03*
D13*
X1846210Y439420D03*
X1857110Y439420D03*
D10*
X2133600Y355600D03*
X2070100Y330200D03*
D11*
X2166620Y405620D03*
X2166620Y371620D03*
D12*
X2065500Y439300D03*
X2065500Y424300D03*
X2125500Y439300D03*
X2125500Y424300D03*
D13*
X2036710Y439420D03*
X2047610Y439420D03*
D10*
X2324100Y355600D03*
X2260600Y330200D03*
D11*
X2357120Y405620D03*
X2357120Y371620D03*
D12*
X2256000Y439300D03*
X2256000Y424300D03*
X2316000Y439300D03*
X2316000Y424300D03*
D13*
X2227210Y439420D03*
X2238110Y439420D03*
D10*
X228600Y165100D03*
X165100Y139700D03*
D11*
X261620Y215120D03*
X261620Y181120D03*
D12*
X220500Y233800D03*
X220500Y248800D03*
X160500Y233800D03*
X160500Y248800D03*
D13*
X238390Y233600D03*
X249290Y233600D03*
D10*
X419100Y165100D03*
X355600Y139700D03*
D11*
X452120Y215120D03*
X452120Y181120D03*
D12*
X411000Y233800D03*
X411000Y248800D03*
X351000Y233800D03*
X351000Y248800D03*
D13*
X428890Y233600D03*
X439790Y233600D03*
D10*
X609600Y165100D03*
X546100Y139700D03*
D11*
X642540Y215120D03*
X642540Y181120D03*
D12*
X601500Y233800D03*
X601500Y248800D03*
X541500Y233800D03*
X541500Y248800D03*
D13*
X619390Y233600D03*
X630290Y233600D03*
D10*
X800100Y165100D03*
X736600Y139700D03*
D11*
X833040Y215120D03*
X833040Y181120D03*
D12*
X792000Y233800D03*
X792000Y248800D03*
X732000Y233800D03*
X732000Y248800D03*
D13*
X809890Y233600D03*
X820790Y233600D03*
D10*
X990600Y165100D03*
X927100Y139700D03*
D11*
X1023620Y215120D03*
X1023620Y181120D03*
D12*
X982500Y233800D03*
X982500Y248800D03*
X922500Y233800D03*
X922500Y248800D03*
D13*
X1000390Y233600D03*
X1011290Y233600D03*
D10*
X1276350Y165100D03*
X1212850Y139700D03*
D11*
X1309370Y215120D03*
X1309370Y181120D03*
D12*
X1268250Y233800D03*
X1268250Y248800D03*
X1208250Y233800D03*
X1208250Y248800D03*
D13*
X1287410Y233680D03*
X1298310Y233680D03*
D10*
X1562100Y165100D03*
X1498600Y139700D03*
D11*
X1595120Y215120D03*
X1595120Y181120D03*
D12*
X1554000Y233800D03*
X1554000Y248800D03*
X1494000Y233800D03*
X1494000Y248800D03*
D13*
X1571890Y233680D03*
X1582790Y233680D03*
D10*
X1752600Y165100D03*
X1689100Y139700D03*
D11*
X1785620Y215120D03*
X1785620Y181120D03*
D12*
X1744500Y233800D03*
X1744500Y248800D03*
X1684500Y233800D03*
X1684500Y248800D03*
D13*
X1762390Y233680D03*
X1773290Y233680D03*
D10*
X1943100Y165100D03*
X1879600Y139700D03*
D11*
X1976120Y215120D03*
X1976120Y181120D03*
D12*
X1935000Y233800D03*
X1935000Y248800D03*
X1875000Y233800D03*
X1875000Y248800D03*
D13*
X1952890Y233680D03*
X1963790Y233680D03*
D10*
X2133600Y165100D03*
X2070100Y139700D03*
D11*
X2166620Y215120D03*
X2166620Y181120D03*
D12*
X2125500Y233800D03*
X2125500Y248800D03*
X2065500Y233800D03*
X2065500Y248800D03*
D13*
X2143390Y233680D03*
X2154290Y233680D03*
D10*
X2324100Y165100D03*
X2260600Y139700D03*
D11*
X2357120Y215120D03*
X2357120Y181120D03*
D12*
X2316000Y233800D03*
X2316000Y248800D03*
X2256000Y233800D03*
X2256000Y248800D03*
D13*
X2333890Y233680D03*
X2344790Y233680D03*
D16*
X473750Y810560D03*
X468750Y810560D03*
X463750Y810560D03*
X458750Y810560D03*
X478750Y810560D03*
X483750Y810560D03*
X488750Y810560D03*
X493750Y810560D03*
D17*
X452250Y810560D03*
X444250Y810560D03*
X500250Y810560D03*
X508250Y810560D03*
D18*
X433050Y811310D02*
X433050Y821310D01*
X519450Y821310D02*
X519450Y811310D01*
X433050Y852810D02*
X433050Y862810D01*
X519450Y862810D02*
X519450Y852810D01*
D19*
X285750Y476250D03*
X666750Y666750D03*
X666750Y285750D03*
X1238250Y476250D03*
X1809750Y666750D03*
X1809750Y285750D03*
X2190750Y476250D03*
D20*
X542810Y843280D03*
X534150Y843280D03*
X409690Y843280D03*
X418350Y843280D03*
D21*
X456250Y511250D03*
X451250Y511250D03*
X461250Y511250D03*
X466250Y511250D03*
X471250Y511250D03*
X476250Y511250D03*
X481250Y511250D03*
X486250Y511250D03*
X491250Y511250D03*
X496250Y511250D03*
X501250Y511250D03*
D22*
X511250Y501250D03*
X511250Y496250D03*
X511250Y491250D03*
X511250Y486250D03*
X511250Y481250D03*
X511250Y476250D03*
X511250Y471250D03*
X511250Y466250D03*
X511250Y461250D03*
X511250Y456250D03*
X511250Y451250D03*
D21*
X501250Y441250D03*
X496250Y441250D03*
X491250Y441250D03*
X486250Y441250D03*
X481250Y441250D03*
X476250Y441250D03*
X471250Y441250D03*
X466250Y441250D03*
X461250Y441250D03*
X456250Y441250D03*
X451250Y441250D03*
D22*
X441250Y451250D03*
X441250Y456250D03*
X441250Y461250D03*
X441250Y466250D03*
X441250Y471250D03*
X441250Y476250D03*
X441250Y481250D03*
X441250Y486250D03*
X441250Y491250D03*
X441250Y496250D03*
X441250Y501250D03*
D23*
X476250Y476250D03*
D20*
X482600Y766330D03*
X482600Y757670D03*
X469900Y766330D03*
X469900Y757670D03*
X530860Y490810D03*
X530860Y499470D03*
D15*
X472440Y538850D03*
X472440Y527950D03*
D24*
X618060Y476640D03*
X596060Y476640D03*
X596060Y493640D03*
X618060Y493640D03*
D15*
X633420Y496850D03*
X633420Y485950D03*
X580860Y494580D03*
X580860Y483680D03*
D13*
X503820Y429260D03*
X514720Y429260D03*
D15*
X431720Y442610D03*
X431720Y431710D03*
D13*
X427090Y501650D03*
X416190Y501650D03*
D15*
X454660Y530490D03*
X454660Y541390D03*
D20*
X413270Y464820D03*
X404610Y464820D03*
D25*
X849310Y710640D03*
X849310Y700640D03*
X849310Y690640D03*
X849310Y680640D03*
X849310Y670640D03*
X849310Y660640D03*
X849310Y650640D03*
X849310Y640640D03*
D26*
X888060Y627640D03*
X888060Y723640D03*
D27*
X558800Y499370D03*
X558800Y455670D03*
D28*
X261620Y752620D02*
X245600Y736600D01*
X228600Y736600D01*
D29*
X131710Y820420D02*
X121920Y820420D01*
D30*
X121920Y820420D03*
D29*
X220500Y805300D02*
X236220Y805300D01*
X236220Y805180D01*
D30*
X236220Y805180D03*
D29*
X312420Y820420D02*
X322210Y820420D01*
D30*
X312420Y820420D03*
D29*
X411000Y805300D02*
X422040Y805300D01*
X433050Y816310D01*
D31*
X409690Y834910D02*
X409690Y843280D01*
X409690Y834910D02*
X411480Y833120D01*
D30*
X411480Y833120D03*
X693420Y820420D03*
D29*
X552820Y839470D02*
X546470Y833120D01*
X552820Y839470D02*
X561340Y839470D01*
D30*
X561340Y839470D03*
D29*
X546620Y839470D02*
X542810Y843280D01*
X546620Y839470D02*
X552820Y839470D01*
X601500Y805300D02*
X617100Y805300D01*
X617220Y805180D01*
D30*
X617220Y805180D03*
D29*
X693420Y820420D02*
X703210Y820420D01*
X792000Y805300D02*
X807600Y805300D01*
X807720Y805180D01*
D30*
X807720Y805180D03*
D29*
X883920Y820420D02*
X893710Y820420D01*
D30*
X883920Y820420D03*
D29*
X982500Y805300D02*
X998100Y805300D01*
X998220Y805180D01*
D30*
X998220Y805180D03*
D29*
X1074420Y820420D02*
X1084210Y820420D01*
D30*
X1074420Y820420D03*
D29*
X1173000Y805300D02*
X1188600Y805300D01*
X1188720Y805180D01*
D30*
X1188720Y805180D03*
D29*
X1264920Y820420D02*
X1274710Y820420D01*
D30*
X1264920Y820420D03*
D29*
X1363500Y805300D02*
X1379220Y805300D01*
X1379220Y805180D01*
D30*
X1379220Y805180D03*
D29*
X1455420Y820420D02*
X1465210Y820420D01*
D30*
X1455420Y820420D03*
D29*
X1554000Y805300D02*
X1569720Y805300D01*
X1569720Y805180D01*
D30*
X1569720Y805180D03*
D29*
X1645920Y820420D02*
X1655710Y820420D01*
D30*
X1645920Y820420D03*
D29*
X1744500Y805300D02*
X1760220Y805300D01*
X1760220Y805180D01*
D30*
X1760220Y805180D03*
D29*
X1836420Y820420D02*
X1846210Y820420D01*
D30*
X1836420Y820420D03*
D29*
X1935000Y805300D02*
X1950720Y805300D01*
X1950720Y805180D01*
D30*
X1950720Y805180D03*
D29*
X2026920Y820420D02*
X2036710Y820420D01*
D30*
X2026920Y820420D03*
D29*
X2125500Y805300D02*
X2141220Y805300D01*
X2141220Y805180D01*
D30*
X2141220Y805180D03*
D29*
X2217420Y820420D02*
X2227210Y820420D01*
D30*
X2217420Y820420D03*
D29*
X2316000Y805300D02*
X2331720Y805300D01*
X2331720Y805180D01*
D30*
X2331720Y805180D03*
D29*
X2344790Y614680D02*
X2354580Y614680D01*
D30*
X2354580Y614680D03*
D29*
X2256000Y629800D02*
X2240280Y629800D01*
X2240280Y629920D01*
D30*
X2240280Y629920D03*
D29*
X2164080Y614680D02*
X2154290Y614680D01*
D30*
X2164080Y614680D03*
D29*
X2065500Y629800D02*
X2049780Y629800D01*
X2049780Y629920D01*
D30*
X2049780Y629920D03*
D29*
X1974850Y614680D02*
X1963790Y614680D01*
D30*
X1974850Y614680D03*
D29*
X1875000Y629800D02*
X1859280Y629800D01*
X1859280Y629920D01*
D30*
X1859280Y629920D03*
D29*
X1783080Y614680D02*
X1773290Y614680D01*
D30*
X1783080Y614680D03*
D29*
X1684500Y629800D02*
X1668780Y629800D01*
X1668780Y629920D01*
D30*
X1668780Y629920D03*
D29*
X1592580Y614680D02*
X1582790Y614680D01*
D30*
X1592580Y614680D03*
D29*
X1402080Y614680D02*
X1392290Y614680D01*
D30*
X1402080Y614680D03*
D29*
X1303500Y629800D02*
X1287780Y629800D01*
X1287780Y629920D01*
D30*
X1287780Y629920D03*
D29*
X1494000Y629800D02*
X1494000Y629920D01*
X1478280Y629920D01*
D30*
X1478280Y629920D03*
D29*
X1212850Y614680D02*
X1201790Y614680D01*
D30*
X1212850Y614680D03*
D29*
X1113000Y629800D02*
X1097280Y629800D01*
X1097280Y629920D01*
D30*
X1097280Y629920D03*
D29*
X1021080Y614680D02*
X1011290Y614680D01*
D30*
X1021080Y614680D03*
D29*
X922500Y629800D02*
X906780Y629800D01*
X906780Y629920D01*
D30*
X906780Y629920D03*
D29*
X831850Y614680D02*
X820790Y614680D01*
D30*
X831850Y614680D03*
D29*
X732000Y629800D02*
X716280Y629800D01*
X716280Y629920D01*
D30*
X716280Y629920D03*
D29*
X641350Y614680D02*
X630290Y614680D01*
D30*
X641350Y614680D03*
D29*
X541500Y629800D02*
X541500Y629920D01*
X525780Y629920D01*
D30*
X525780Y629920D03*
D29*
X450850Y614680D02*
X439790Y614680D01*
D30*
X450850Y614680D03*
D29*
X351000Y629800D02*
X335280Y629800D01*
X335280Y629920D01*
D30*
X335280Y629920D03*
D29*
X259080Y614680D02*
X249290Y614680D01*
D30*
X259080Y614680D03*
D29*
X160500Y629800D02*
X144780Y629800D01*
X144780Y629920D01*
D30*
X144780Y629920D03*
D29*
X220500Y424300D02*
X236220Y424300D01*
X236220Y424180D01*
D30*
X236220Y424180D03*
D29*
X312420Y439420D02*
X322210Y439420D01*
D30*
X312420Y439420D03*
D29*
X601500Y424300D02*
X617100Y424300D01*
X617220Y424180D01*
D30*
X617220Y424180D03*
D29*
X693420Y439420D02*
X703210Y439420D01*
D30*
X693420Y439420D03*
D29*
X792000Y424300D02*
X807600Y424300D01*
X807720Y424180D01*
D30*
X807720Y424180D03*
D29*
X883920Y439420D02*
X893710Y439420D01*
D30*
X883920Y439420D03*
D29*
X982500Y424300D02*
X998220Y424300D01*
X998220Y424180D01*
D30*
X998220Y424180D03*
D29*
X1073150Y439420D02*
X1084210Y439420D01*
D30*
X1073150Y439420D03*
D29*
X1173000Y424300D02*
X1188720Y424300D01*
X1188720Y424180D01*
D30*
X1188720Y424180D03*
D29*
X1264920Y439420D02*
X1274710Y439420D01*
D30*
X1264920Y439420D03*
D29*
X1363500Y424300D02*
X1379220Y424300D01*
X1379220Y424180D01*
D30*
X1379220Y424180D03*
D29*
X1455420Y439420D02*
X1465210Y439420D01*
D30*
X1455420Y439420D03*
D29*
X1554000Y424300D02*
X1569720Y424300D01*
X1569720Y424180D01*
D30*
X1569720Y424180D03*
D29*
X1645920Y439420D02*
X1655710Y439420D01*
D30*
X1645920Y439420D03*
D29*
X1744500Y424300D02*
X1760220Y424300D01*
X1760220Y424180D01*
D30*
X1760220Y424180D03*
D29*
X1836420Y439420D02*
X1846210Y439420D01*
D30*
X1836420Y439420D03*
D29*
X1935000Y424300D02*
X1950720Y424300D01*
X1950720Y424180D01*
D30*
X1950720Y424180D03*
D29*
X2026920Y439420D02*
X2036710Y439420D01*
D30*
X2026920Y439420D03*
D29*
X2125500Y424300D02*
X2141220Y424300D01*
X2141220Y424180D01*
D30*
X2141220Y424180D03*
D29*
X2217420Y439420D02*
X2227210Y439420D01*
D30*
X2217420Y439420D03*
D29*
X2316000Y424300D02*
X2331720Y424300D01*
X2331720Y424180D01*
D30*
X2331720Y424180D03*
D29*
X2344790Y233680D02*
X2355850Y233680D01*
D30*
X2355850Y233680D03*
D29*
X2256000Y248800D02*
X2240280Y248800D01*
X2240280Y248920D01*
D30*
X2240280Y248920D03*
D29*
X2165350Y233680D02*
X2154290Y233680D01*
D30*
X2165350Y233680D03*
D29*
X2065500Y248800D02*
X2049780Y248800D01*
X2049780Y248920D01*
D30*
X2049780Y248920D03*
D29*
X1974850Y233680D02*
X1963790Y233680D01*
D30*
X1974850Y233680D03*
D29*
X1875000Y248800D02*
X1859280Y248800D01*
X1859280Y248920D01*
D30*
X1859280Y248920D03*
D29*
X1784350Y233680D02*
X1773290Y233680D01*
D30*
X1784350Y233680D03*
D29*
X1684500Y248800D02*
X1668780Y248800D01*
X1668780Y248920D01*
D30*
X1668780Y248920D03*
D29*
X1593850Y233680D02*
X1582790Y233680D01*
D30*
X1593850Y233680D03*
D29*
X1494000Y248800D02*
X1478280Y248800D01*
X1478280Y248920D01*
D30*
X1478280Y248920D03*
D29*
X1308100Y233680D02*
X1298310Y233680D01*
D30*
X1308100Y233680D03*
D29*
X1208250Y248800D02*
X1191260Y248800D01*
X1191260Y248920D01*
D30*
X1191260Y248920D03*
D29*
X1011290Y233680D02*
X1011290Y233600D01*
X1011290Y233680D02*
X1022350Y233680D01*
D30*
X1022350Y233680D03*
D29*
X922500Y248800D02*
X906780Y248800D01*
X906780Y248920D01*
D30*
X906780Y248920D03*
D29*
X831850Y233600D02*
X820790Y233600D01*
X831850Y233600D02*
X831850Y233680D01*
D30*
X831850Y233680D03*
D29*
X732000Y248800D02*
X716280Y248800D01*
X716280Y248920D01*
D30*
X716280Y248920D03*
D29*
X641350Y233600D02*
X630290Y233600D01*
X641350Y233600D02*
X641350Y233680D01*
D30*
X641350Y233680D03*
D29*
X541500Y248800D02*
X525780Y248800D01*
X525780Y248920D01*
D30*
X525780Y248920D03*
D29*
X439790Y233680D02*
X439790Y233600D01*
X439790Y233680D02*
X450850Y233680D01*
D30*
X450850Y233680D03*
D29*
X351000Y248800D02*
X335280Y248800D01*
X335280Y248920D01*
D30*
X335280Y248920D03*
D29*
X260350Y233600D02*
X249290Y233600D01*
X260350Y233600D02*
X260350Y233680D01*
D30*
X260350Y233680D03*
D29*
X160500Y248800D02*
X144780Y248800D01*
X144780Y248920D01*
D30*
X144780Y248920D03*
X476250Y476250D03*
X458470Y476250D03*
X458470Y458470D03*
X458470Y494030D03*
X476250Y458470D03*
X494030Y458470D03*
X476250Y494030D03*
X494030Y494030D03*
X494030Y476250D03*
D32*
X501250Y447040D02*
X501250Y441250D01*
X525780Y447410D02*
X536310Y447410D01*
X538480Y449580D01*
D30*
X538480Y449580D03*
D32*
X514720Y429260D02*
X513080Y430900D01*
X513080Y436880D01*
D30*
X513080Y436880D03*
D32*
X436790Y431710D02*
X431720Y431710D01*
X436790Y431710D02*
X441960Y436880D01*
D30*
X441960Y436880D03*
D32*
X416190Y501650D02*
X407670Y501650D01*
D30*
X407670Y501650D03*
D32*
X454660Y541390D02*
X454660Y551180D01*
D30*
X454660Y551180D03*
D32*
X472440Y541020D02*
X472440Y538850D01*
X472440Y541020D02*
X478790Y547370D01*
D30*
X478790Y547370D03*
D32*
X411000Y424300D02*
X411000Y419580D01*
X416560Y414020D01*
D30*
X416560Y414020D03*
D31*
X508250Y810560D02*
X513700Y810560D01*
X519450Y816310D01*
X444250Y810560D02*
X438800Y810560D01*
X433050Y816310D01*
X131710Y439420D02*
X132080Y439050D01*
X132080Y429260D01*
D30*
X132080Y429260D03*
D32*
X544570Y455670D02*
X558800Y455670D01*
X544570Y455670D02*
X538480Y449580D01*
X580542Y483362D02*
X580860Y483680D01*
X580542Y483362D02*
X569706Y483362D01*
D30*
X569706Y483362D03*
X607060Y485140D03*
D32*
X598560Y476640D02*
X596060Y476640D01*
X598560Y476640D02*
X607060Y485140D01*
X615560Y493640D01*
X618060Y493640D01*
X633420Y496850D02*
X633420Y505770D01*
X632460Y506730D01*
D30*
X632460Y506730D03*
D31*
X849310Y700640D02*
X863723Y700640D01*
X865766Y702684D01*
D30*
X865766Y702684D03*
D32*
X456250Y456250D02*
X441250Y456250D01*
X456250Y456250D02*
X458470Y458470D01*
X456250Y496250D02*
X441250Y496250D01*
X456250Y496250D02*
X458470Y494030D01*
X471250Y499030D02*
X471250Y511250D01*
X471250Y499030D02*
X476250Y494030D01*
X486250Y486250D02*
X511250Y486250D01*
X486250Y486250D02*
X476250Y476250D01*
X458470Y458470D01*
X476250Y458470D02*
X476250Y476250D01*
X494030Y458470D01*
X494030Y476250D02*
X476250Y476250D01*
X494030Y494030D01*
X476250Y494030D02*
X476250Y476250D01*
X458470Y494030D01*
X458470Y476250D02*
X476250Y476250D01*
X501250Y451250D01*
X501250Y447040D01*
D29*
X149860Y820420D02*
X142610Y820420D01*
X149860Y820420D02*
X160380Y820420D01*
X160500Y820300D01*
X149860Y820420D02*
X149860Y831850D01*
D30*
X149860Y831850D03*
D29*
X351000Y820420D02*
X351000Y820300D01*
D30*
X337820Y831850D03*
X461010Y797560D03*
X491490Y797560D03*
X518160Y833120D03*
D31*
X731880Y820420D02*
X732000Y820300D01*
D30*
X721360Y831850D03*
D29*
X535570Y833120D02*
X528680Y833120D01*
X541500Y820300D01*
X528680Y833120D02*
X518160Y833120D01*
X714110Y820420D02*
X721360Y820420D01*
X731880Y820420D01*
X721360Y820420D02*
X721360Y831850D01*
X904610Y820420D02*
X914400Y820420D01*
X922380Y820420D01*
X922500Y820300D01*
X914400Y820420D02*
X911860Y822960D01*
X911860Y831850D01*
D30*
X911860Y831850D03*
D29*
X1095110Y820420D02*
X1102360Y820420D01*
X1112880Y820420D01*
X1113000Y820300D01*
X1102360Y820420D02*
X1102360Y831850D01*
D30*
X1102360Y831850D03*
D29*
X1292860Y820420D02*
X1303380Y820420D01*
X1292860Y820420D02*
X1285610Y820420D01*
X1303380Y820420D02*
X1303500Y820300D01*
X1292860Y820420D02*
X1292860Y831850D01*
D30*
X1292860Y831850D03*
D29*
X1476110Y820420D02*
X1483360Y820420D01*
X1494000Y820420D01*
X1494000Y820300D01*
X1483360Y820420D02*
X1483360Y831850D01*
D30*
X1483360Y831850D03*
D29*
X1666610Y820420D02*
X1673860Y820420D01*
X1684500Y820420D01*
X1684500Y820300D01*
X1673860Y820420D02*
X1673860Y831850D01*
D30*
X1673860Y831850D03*
D29*
X1857110Y820420D02*
X1857110Y820300D01*
X1864360Y820300D01*
X1875000Y820300D01*
X1864360Y820300D02*
X1864360Y831850D01*
D30*
X1864360Y831850D03*
D29*
X2047610Y820420D02*
X2054860Y820420D01*
X2065500Y820420D01*
X2065500Y820300D01*
X2054860Y820420D02*
X2054860Y831850D01*
D30*
X2054860Y831850D03*
D29*
X2238110Y820420D02*
X2245360Y820420D01*
X2256000Y820420D01*
X2256000Y820300D01*
X2245360Y820420D02*
X2245360Y831850D01*
D30*
X2245360Y831850D03*
X2326640Y604520D03*
D29*
X2143390Y614680D02*
X2136140Y614680D01*
X2125500Y614680D01*
X2125500Y614800D01*
X2136140Y614680D02*
X2136140Y604520D01*
D30*
X2136140Y604520D03*
D29*
X1952890Y614680D02*
X1945640Y614680D01*
X1935000Y614680D01*
X1935000Y614800D01*
X1945640Y614680D02*
X1945640Y604520D01*
D30*
X1945640Y604520D03*
D29*
X1762390Y614680D02*
X1755140Y614680D01*
X1744500Y614680D01*
X1744500Y614800D01*
X1755140Y614680D02*
X1755140Y604520D01*
D30*
X1755140Y604520D03*
D29*
X1564640Y604520D02*
X1564640Y614680D01*
D30*
X1564640Y604520D03*
D29*
X1564640Y614680D02*
X1571890Y614680D01*
X1564640Y614800D02*
X1564640Y614680D01*
X1554000Y614680D01*
X1554000Y614800D01*
X1381390Y614680D02*
X1374140Y614680D01*
X1363500Y614680D01*
X1363500Y614800D01*
X1374140Y614680D02*
X1374140Y604520D01*
D30*
X1374140Y604520D03*
D29*
X1190890Y614680D02*
X1183640Y614680D01*
X1173000Y614680D01*
X1173000Y614800D01*
X1183640Y614680D02*
X1183640Y604520D01*
D30*
X1183640Y604520D03*
D29*
X1000390Y614680D02*
X993140Y614680D01*
X982500Y614680D01*
X982500Y614800D01*
X993140Y614680D02*
X993140Y604520D01*
D30*
X993140Y604520D03*
D29*
X809890Y614680D02*
X802640Y614680D01*
X792000Y614680D01*
X792000Y614800D01*
X802640Y614680D02*
X802640Y604520D01*
D30*
X802640Y604520D03*
D29*
X619390Y614680D02*
X612140Y614680D01*
X601500Y614680D01*
X601500Y614800D01*
X612140Y614680D02*
X612140Y604520D01*
D30*
X612140Y604520D03*
D29*
X428890Y614680D02*
X411000Y614680D01*
X411000Y614800D01*
X421640Y614800D01*
X421640Y604520D01*
D30*
X421640Y604520D03*
D29*
X238390Y614680D02*
X231140Y614680D01*
X220500Y614680D01*
X220500Y614800D01*
X231140Y614680D02*
X231140Y604520D01*
D30*
X231140Y604520D03*
D29*
X149860Y439420D02*
X142610Y439420D01*
X149860Y439420D02*
X160500Y439420D01*
X160500Y439300D01*
X333110Y439420D02*
X333110Y439300D01*
X340360Y439300D01*
X351000Y439300D01*
X340360Y439300D02*
X340360Y450850D01*
D30*
X340360Y450850D03*
D29*
X532130Y439420D02*
X532250Y439300D01*
X532130Y439420D02*
X529220Y436510D01*
X525780Y436510D01*
X714110Y439420D02*
X721360Y439420D01*
X731880Y439420D01*
X732000Y439300D01*
X721360Y439420D02*
X721360Y450850D01*
D30*
X721360Y450850D03*
D29*
X149860Y450850D02*
X149860Y439420D01*
D30*
X149860Y450850D03*
D29*
X904610Y439420D02*
X911860Y439420D01*
X922500Y439420D01*
X922500Y439300D01*
X911860Y439420D02*
X911860Y450850D01*
D30*
X911860Y450850D03*
D29*
X1095110Y439420D02*
X1102360Y439420D01*
X1113000Y439420D01*
X1113000Y439300D01*
X1102360Y439420D02*
X1102360Y450850D01*
D30*
X1102360Y450850D03*
D29*
X1285610Y439420D02*
X1292860Y439420D01*
X1303500Y439420D01*
X1303500Y439300D01*
X1292860Y439420D02*
X1292860Y450850D01*
D30*
X1292860Y450850D03*
D29*
X1476110Y439420D02*
X1476110Y439300D01*
X1483360Y439300D01*
X1494000Y439300D01*
X1483360Y439300D02*
X1483360Y450850D01*
D30*
X1483360Y450850D03*
D29*
X1666610Y439420D02*
X1673860Y439420D01*
X1684500Y439420D01*
X1684500Y439300D01*
X1673860Y439420D02*
X1673860Y450850D01*
D30*
X1673860Y450850D03*
D29*
X1857110Y439420D02*
X1857110Y439300D01*
X1864360Y439300D01*
X1875000Y439300D01*
X1864360Y439300D02*
X1864360Y450850D01*
D30*
X1864360Y450850D03*
D29*
X2047610Y439420D02*
X2047610Y439300D01*
X2054860Y439300D01*
X2065500Y439300D01*
X2054860Y439300D02*
X2054860Y450850D01*
D30*
X2054860Y450850D03*
D29*
X2238110Y439420D02*
X2245360Y439420D01*
X2256000Y439420D01*
X2256000Y439300D01*
X2245360Y439420D02*
X2245360Y450850D01*
D30*
X2245360Y450850D03*
D29*
X2326640Y233680D02*
X2333890Y233680D01*
X2326640Y233680D02*
X2316000Y233680D01*
X2316000Y233800D01*
X2326640Y233680D02*
X2326640Y223520D01*
D30*
X2326640Y223520D03*
X2136140Y223520D03*
D29*
X1952890Y233680D02*
X1945640Y233680D01*
X1935000Y233680D01*
X1935000Y233800D01*
X1945640Y233680D02*
X1945640Y223520D01*
D30*
X1945640Y223520D03*
D29*
X1762390Y233680D02*
X1755140Y233680D01*
X1744500Y233680D01*
X1744500Y233800D01*
X1755140Y233680D02*
X1755140Y223520D01*
D30*
X1755140Y223520D03*
D29*
X1571890Y233680D02*
X1564640Y233680D01*
X1554000Y233680D01*
X1554000Y233800D01*
X1564640Y233680D02*
X1564640Y223520D01*
D30*
X1564640Y223520D03*
D29*
X1287410Y233680D02*
X1280160Y233680D01*
X1268250Y233680D01*
X1268250Y233800D01*
X1280160Y233680D02*
X1280160Y223520D01*
D30*
X1280160Y223520D03*
D29*
X1000390Y233600D02*
X993140Y233600D01*
X982500Y233600D01*
X982500Y233800D01*
X993140Y233600D02*
X993140Y223520D01*
D30*
X993140Y223520D03*
D29*
X809890Y233600D02*
X809890Y233800D01*
X802640Y233800D01*
X792000Y233800D01*
X802640Y233800D02*
X802640Y223520D01*
D30*
X802640Y223520D03*
X612140Y223520D03*
D29*
X428890Y233600D02*
X421640Y233600D01*
X411000Y233600D01*
X411000Y233800D01*
X421640Y233600D02*
X421640Y223520D01*
D30*
X421640Y223520D03*
D29*
X238390Y233600D02*
X231140Y233600D01*
X220500Y233600D01*
X220500Y233800D01*
X231140Y233600D02*
X231140Y223520D01*
D30*
X231140Y223520D03*
D32*
X433470Y451250D02*
X441250Y451250D01*
X431720Y449500D02*
X431720Y442610D01*
X431720Y449500D02*
X433470Y451250D01*
X425850Y451250D01*
X422055Y447455D01*
D30*
X422055Y447455D03*
D32*
X496250Y441250D02*
X496250Y430850D01*
X497840Y429260D01*
X503820Y429260D01*
X496250Y430850D02*
X496250Y425770D01*
X500380Y421640D01*
D30*
X500380Y421640D03*
D32*
X441250Y501250D02*
X434340Y501250D01*
X427490Y501250D01*
X427090Y501650D01*
X456250Y511250D02*
X456250Y519200D01*
X454660Y520790D02*
X454660Y530490D01*
X454660Y520790D02*
X456250Y519200D01*
X481250Y524590D02*
X481250Y511250D01*
X481250Y524590D02*
X480060Y525780D01*
D30*
X480060Y525780D03*
X434340Y508000D03*
D32*
X434340Y501250D01*
D30*
X447040Y528320D03*
D32*
X447130Y528320D01*
X454660Y520790D01*
D30*
X518181Y421619D03*
D32*
X511250Y491250D02*
X530420Y491250D01*
X530860Y490810D01*
D30*
X539750Y492358D03*
D32*
X538202Y490810D02*
X530860Y490810D01*
X538202Y490810D02*
X539750Y492358D01*
D31*
X849310Y710640D02*
X860500Y710640D01*
X863600Y713740D01*
D30*
X863600Y713740D03*
D29*
X337820Y820420D02*
X333110Y820420D01*
X337820Y820420D02*
X350880Y820420D01*
X351000Y820300D01*
X337820Y820420D02*
X337820Y831850D01*
X2326640Y614680D02*
X2333890Y614680D01*
X2326640Y614680D02*
X2316120Y614680D01*
X2316000Y614800D01*
X2326640Y614680D02*
X2326640Y604520D01*
X2143390Y233680D02*
X2136140Y233680D01*
X2125620Y233680D01*
X2125500Y233800D01*
X2136140Y233680D02*
X2136140Y223520D01*
X619390Y233600D02*
X612140Y233600D01*
X601700Y233600D01*
X601500Y233800D01*
X612140Y233600D02*
X612140Y223520D01*
X541500Y439300D02*
X532250Y439300D01*
D32*
X525780Y436510D02*
X525780Y424180D01*
X523219Y421619D02*
X518181Y421619D01*
X523219Y421619D02*
X525780Y424180D01*
D31*
X452136Y802624D02*
X452250Y802739D01*
X452250Y810560D01*
X452136Y802624D02*
X457200Y797560D01*
X461010Y797560D01*
X500250Y802739D02*
X500250Y810560D01*
X495071Y797560D02*
X491490Y797560D01*
X495071Y797560D02*
X500250Y802739D01*
D28*
X351000Y805300D02*
X312540Y805300D01*
X312420Y805180D01*
X297300Y820300D01*
X220500Y820300D01*
X436100Y736600D02*
X452120Y752620D01*
X436100Y736600D02*
X419100Y736600D01*
D30*
X528320Y797560D03*
X424180Y830580D03*
D28*
X530980Y805300D02*
X541500Y805300D01*
X528320Y802640D02*
X528320Y797560D01*
X528320Y802640D02*
X530980Y805300D01*
X411120Y820420D02*
X411000Y820300D01*
X411120Y820420D02*
X421640Y820420D01*
X424180Y822960D01*
X424180Y830580D01*
X626600Y736600D02*
X642620Y752620D01*
X626600Y736600D02*
X609600Y736600D01*
X693300Y805300D02*
X732000Y805300D01*
X678300Y820300D02*
X601500Y820300D01*
X678300Y820300D02*
X693300Y805300D01*
X817100Y736600D02*
X833120Y752620D01*
X817100Y736600D02*
X800100Y736600D01*
X792000Y820300D02*
X871340Y820300D01*
X886340Y805300D01*
X922500Y805300D01*
X1007600Y736600D02*
X1023620Y752620D01*
X1007600Y736600D02*
X990600Y736600D01*
X982500Y820300D02*
X1059300Y820300D01*
X1074300Y805300D01*
X1113000Y805300D01*
X1198100Y736600D02*
X1214120Y752620D01*
X1198100Y736600D02*
X1181100Y736600D01*
X1173000Y820300D02*
X1252340Y820300D01*
X1267340Y805300D01*
X1303500Y805300D01*
X1388600Y736600D02*
X1404620Y752620D01*
X1388600Y736600D02*
X1371600Y736600D01*
X1363500Y820300D02*
X1440300Y820300D01*
X1455300Y805300D01*
X1494000Y805300D01*
X1579100Y736600D02*
X1595120Y752620D01*
X1579100Y736600D02*
X1562100Y736600D01*
X1648340Y805300D02*
X1684500Y805300D01*
X1633340Y820300D02*
X1554000Y820300D01*
X1633340Y820300D02*
X1648340Y805300D01*
X1769600Y736600D02*
X1785620Y752620D01*
X1769600Y736600D02*
X1752600Y736600D01*
X1744500Y820300D02*
X1821300Y820300D01*
X1836300Y805300D01*
X1875000Y805300D01*
X1960100Y736600D02*
X1976120Y752620D01*
X1960100Y736600D02*
X1943100Y736600D01*
X1935000Y820300D02*
X2014340Y820300D01*
X2029340Y805300D01*
X2065500Y805300D01*
X2150600Y736600D02*
X2166620Y752620D01*
X2150600Y736600D02*
X2133600Y736600D01*
X2217300Y805300D02*
X2256000Y805300D01*
X2202300Y820300D02*
X2125500Y820300D01*
X2202300Y820300D02*
X2217300Y805300D01*
X2342370Y736600D02*
X2358390Y752620D01*
X2342370Y736600D02*
X2324100Y736600D01*
X245600Y546100D02*
X228600Y546100D01*
X245600Y546100D02*
X261620Y562120D01*
X419100Y546100D02*
X436100Y546100D01*
X452120Y562120D01*
X447160Y629800D02*
X411000Y629800D01*
X447160Y629800D02*
X462280Y614680D01*
X470408Y614680D01*
D30*
X470408Y614680D03*
X494284Y614680D03*
D28*
X494404Y614800D01*
X541500Y614800D01*
X609600Y546100D02*
X626600Y546100D01*
X642620Y562120D01*
X640200Y629800D02*
X601500Y629800D01*
X655200Y614800D02*
X732000Y614800D01*
X655200Y614800D02*
X640200Y629800D01*
X800100Y546100D02*
X817100Y546100D01*
X833120Y562120D01*
X830700Y629800D02*
X792000Y629800D01*
X845700Y614800D02*
X922500Y614800D01*
X845700Y614800D02*
X830700Y629800D01*
X990600Y546100D02*
X1007600Y546100D01*
X1023620Y562120D01*
X1018660Y629800D02*
X982500Y629800D01*
X1033660Y614800D02*
X1113000Y614800D01*
X1033660Y614800D02*
X1018660Y629800D01*
X1181100Y546100D02*
X1198100Y546100D01*
X1214120Y562120D01*
X1371600Y546100D02*
X1388600Y546100D01*
X1404620Y562120D01*
X1211700Y629800D02*
X1173000Y629800D01*
X1226700Y614800D02*
X1303500Y614800D01*
X1226700Y614800D02*
X1211700Y629800D01*
X1562100Y546100D02*
X1579100Y546100D01*
X1595120Y562120D01*
X1402200Y629800D02*
X1363500Y629800D01*
X1417200Y614800D02*
X1494000Y614800D01*
X1417200Y614800D02*
X1402200Y629800D01*
X1752600Y546100D02*
X1769600Y546100D01*
X1785620Y562120D01*
X1592700Y629800D02*
X1554000Y629800D01*
X1607700Y614800D02*
X1684500Y614800D01*
X1607700Y614800D02*
X1592700Y629800D01*
X1943100Y546100D02*
X1960100Y546100D01*
X1976120Y562120D01*
X1783200Y629800D02*
X1744500Y629800D01*
X1798200Y614800D02*
X1875000Y614800D01*
X1798200Y614800D02*
X1783200Y629800D01*
X2133600Y546100D02*
X2153140Y546100D01*
X2169160Y562120D01*
X1973700Y629800D02*
X1935000Y629800D01*
X1988700Y614800D02*
X2065500Y614800D01*
X1988700Y614800D02*
X1973700Y629800D01*
X2324100Y546100D02*
X2341100Y546100D01*
X2357120Y562120D01*
X2164200Y629800D02*
X2125500Y629800D01*
X2179200Y614800D02*
X2256000Y614800D01*
X2179200Y614800D02*
X2164200Y629800D01*
X245600Y355600D02*
X228600Y355600D01*
X245600Y355600D02*
X261620Y371620D01*
X258960Y424300D02*
X351000Y424300D01*
X243960Y439300D02*
X220500Y439300D01*
X243960Y439300D02*
X258960Y424300D01*
X419100Y355600D02*
X419100Y330980D01*
X418320Y330200D01*
X421760Y439300D02*
X411000Y439300D01*
X421760Y439300D02*
X424180Y436880D01*
X429510Y415040D02*
X444138Y415040D01*
D30*
X444138Y415040D03*
D28*
X424180Y420370D02*
X424180Y436880D01*
X424180Y420370D02*
X429510Y415040D01*
D30*
X508000Y413512D03*
D28*
X520192Y413512D01*
X530980Y424300D02*
X541500Y424300D01*
X530980Y424300D02*
X520192Y413512D01*
X609600Y355600D02*
X626600Y355600D01*
X642620Y371620D01*
X800100Y355600D02*
X817100Y355600D01*
X833120Y371620D01*
X883800Y424300D02*
X922500Y424300D01*
X868800Y439300D02*
X792000Y439300D01*
X868800Y439300D02*
X883800Y424300D01*
X990600Y355600D02*
X1007600Y355600D01*
X1023620Y371620D01*
X1074300Y424300D02*
X1113000Y424300D01*
X1059300Y439300D02*
X982500Y439300D01*
X1059300Y439300D02*
X1074300Y424300D01*
X1181100Y355600D02*
X1198100Y355600D01*
X1214120Y371620D01*
X1264800Y424300D02*
X1303500Y424300D01*
X1249800Y439300D02*
X1173000Y439300D01*
X1249800Y439300D02*
X1264800Y424300D01*
X1371600Y355600D02*
X1388600Y355600D01*
X1404620Y371620D01*
X1457840Y424300D02*
X1494000Y424300D01*
X1442840Y439300D02*
X1363500Y439300D01*
X1442840Y439300D02*
X1457840Y424300D01*
X1562100Y355600D02*
X1578660Y355600D01*
X1595040Y371980D01*
X1648340Y424300D02*
X1684500Y424300D01*
X1633340Y439300D02*
X1554000Y439300D01*
X1633340Y439300D02*
X1648340Y424300D01*
X1752600Y355600D02*
X1769600Y355600D01*
X1785620Y371620D01*
X1838840Y424300D02*
X1875000Y424300D01*
X1823840Y439300D02*
X1744500Y439300D01*
X1823840Y439300D02*
X1838840Y424300D01*
X1943100Y355600D02*
X1960100Y355600D01*
X1976120Y371620D01*
X2029340Y424300D02*
X2065500Y424300D01*
X2014340Y439300D02*
X1935000Y439300D01*
X2014340Y439300D02*
X2029340Y424300D01*
X2133600Y355600D02*
X2150600Y355600D01*
X2166620Y371620D01*
X2219840Y424300D02*
X2256000Y424300D01*
X2204840Y439300D02*
X2125500Y439300D01*
X2204840Y439300D02*
X2219840Y424300D01*
X2324100Y355600D02*
X2341100Y355600D01*
X2357120Y371620D01*
X2359540Y248800D02*
X2316000Y248800D01*
X2359540Y248800D02*
X2369820Y259080D01*
X2369820Y429260D01*
X2359660Y439420D01*
X2316120Y439420D01*
X2316000Y439300D01*
X245600Y165100D02*
X228600Y165100D01*
X245600Y165100D02*
X261620Y181120D01*
X271780Y443230D02*
X248920Y466090D01*
X298450Y443230D02*
X321310Y466090D01*
X298450Y443230D02*
X271780Y443230D01*
X394970Y464820D02*
X404610Y464820D01*
X394970Y464820D02*
X393700Y466090D01*
X321310Y466090D01*
X123190Y466090D02*
X113030Y455930D01*
X123190Y466090D02*
X248920Y466090D01*
X113030Y247650D02*
X126880Y233800D01*
X113030Y247650D02*
X113030Y455930D01*
X126880Y233800D02*
X160500Y233800D01*
X419100Y165100D02*
X436100Y165100D01*
X452120Y181120D01*
X259200Y248800D02*
X220500Y248800D01*
X274200Y233800D02*
X351000Y233800D01*
X274200Y233800D02*
X259200Y248800D01*
X609600Y165100D02*
X626520Y165100D01*
X642540Y181120D01*
X449700Y248800D02*
X411000Y248800D01*
X464700Y233800D02*
X541500Y233800D01*
X464700Y233800D02*
X449700Y248800D01*
X800100Y165100D02*
X817020Y165100D01*
X833040Y181120D01*
X637660Y248800D02*
X601500Y248800D01*
X652660Y233800D02*
X732000Y233800D01*
X652660Y233800D02*
X637660Y248800D01*
X990600Y165100D02*
X1007600Y165100D01*
X1023620Y181120D01*
X830700Y248800D02*
X792000Y248800D01*
X845700Y233800D02*
X922500Y233800D01*
X845700Y233800D02*
X830700Y248800D01*
X1276350Y165100D02*
X1293350Y165100D01*
X1309370Y181120D01*
X1018660Y248800D02*
X982500Y248800D01*
X1033660Y233800D02*
X1208250Y233800D01*
X1033660Y233800D02*
X1018660Y248800D01*
X1562100Y165100D02*
X1579100Y165100D01*
X1595120Y181120D01*
X1305680Y248800D02*
X1268250Y248800D01*
X1320680Y233800D02*
X1494000Y233800D01*
X1320680Y233800D02*
X1305680Y248800D01*
X1752600Y165100D02*
X1769600Y165100D01*
X1785620Y181120D01*
X1592700Y248800D02*
X1554000Y248800D01*
X1607700Y233800D02*
X1684500Y233800D01*
X1607700Y233800D02*
X1592700Y248800D01*
X1943100Y165100D02*
X1960100Y165100D01*
X1976120Y181120D01*
X1783200Y248800D02*
X1744500Y248800D01*
X1798200Y233800D02*
X1875000Y233800D01*
X1798200Y233800D02*
X1783200Y248800D01*
X2133600Y165100D02*
X2150600Y165100D01*
X2166620Y181120D01*
X1973700Y248800D02*
X1935000Y248800D01*
X1988700Y233800D02*
X2065500Y233800D01*
X1988700Y233800D02*
X1973700Y248800D01*
X2324100Y165100D02*
X2341100Y165100D01*
X2357120Y181120D01*
X2164200Y248800D02*
X2125500Y248800D01*
X2179200Y233800D02*
X2256000Y233800D01*
X2179200Y233800D02*
X2164200Y248800D01*
X259200Y629800D02*
X220500Y629800D01*
X274200Y614800D02*
X351000Y614800D01*
X274200Y614800D02*
X259200Y629800D01*
X2316000Y629800D02*
X2359540Y629800D01*
X2369820Y640080D01*
X2369820Y811530D01*
X2360930Y820420D01*
X2316120Y820420D01*
X2316000Y820300D01*
X160500Y424300D02*
X144900Y424300D01*
X137160Y416560D01*
D30*
X137160Y416560D03*
X142240Y614680D03*
D28*
X142360Y614800D01*
X160500Y614800D01*
D32*
X473750Y803360D02*
X475800Y801310D01*
X473750Y803360D02*
X473750Y810560D01*
X481700Y801310D02*
X483750Y803360D01*
X483750Y807720D02*
X483750Y810560D01*
X483750Y807720D02*
X483750Y803360D01*
X481700Y801310D02*
X475800Y801310D01*
D28*
X482600Y787400D02*
X482600Y766330D01*
X482600Y787400D02*
X483870Y788670D01*
X483870Y807600D01*
X483750Y807720D01*
D32*
X468750Y810560D02*
X468750Y817760D01*
X470800Y819810D01*
X476700Y819810D02*
X478750Y817760D01*
X478750Y810560D01*
X476700Y819810D02*
X470800Y819810D01*
D28*
X468750Y810560D02*
X468750Y788550D01*
X469900Y787400D01*
X469900Y766330D01*
D32*
X493750Y810560D02*
X493750Y837920D01*
X499110Y843280D01*
X534150Y843280D01*
X463750Y838000D02*
X463750Y810560D01*
X463750Y838000D02*
X458470Y843280D01*
X418350Y843280D01*
D28*
X466250Y544990D02*
X466250Y511250D01*
X482600Y561340D02*
X482600Y757670D01*
X482600Y561340D02*
X466250Y544990D01*
X461250Y547061D02*
X461250Y511250D01*
X477520Y750050D02*
X469900Y757670D01*
X477520Y750050D02*
X477520Y563331D01*
X461250Y547061D01*
X511988Y496988D02*
X511250Y496250D01*
X511988Y496988D02*
X518894Y496988D01*
X521376Y499470D02*
X530860Y499470D01*
X521376Y499470D02*
X518894Y496988D01*
X530860Y499470D02*
X558700Y499470D01*
X558800Y499370D01*
X476250Y511250D02*
X476250Y519532D01*
X472948Y522834D01*
X472948Y527442D01*
X472440Y527950D01*
X511250Y476250D02*
X570230Y476250D01*
X579120Y467360D01*
X608780Y467360D01*
X618060Y476640D01*
X627370Y485950D01*
X633420Y485950D01*
X491250Y511250D02*
X491250Y525540D01*
X508000Y542290D02*
X560070Y542290D01*
X508000Y542290D02*
X491250Y525540D01*
X560070Y542290D02*
X580390Y521970D01*
X824790Y640640D02*
X849310Y640640D01*
X824790Y640640D02*
X822960Y638810D01*
D30*
X822960Y638810D03*
D28*
X822960Y487172D02*
X697738Y487172D01*
D30*
X822960Y487172D03*
D28*
X662940Y521970D02*
X580390Y521970D01*
X662940Y521970D02*
X697738Y487172D01*
X496250Y511250D02*
X496250Y524190D01*
X510540Y538480D02*
X558800Y538480D01*
X510540Y538480D02*
X496250Y524190D01*
X558800Y538480D02*
X579120Y518160D01*
X849310Y660640D02*
X867170Y660640D01*
X869950Y657860D01*
D30*
X869950Y657860D03*
D28*
X695960Y480060D02*
X657860Y518160D01*
X695960Y480060D02*
X869950Y480060D01*
D30*
X869950Y480060D03*
D28*
X657860Y518160D02*
X579120Y518160D01*
X491250Y441250D02*
X491250Y329170D01*
X505460Y314960D01*
X558800Y314960D01*
X563880Y320040D01*
X631190Y320040D02*
X636270Y325120D01*
X688340Y325120D01*
X631190Y320040D02*
X563880Y320040D01*
X697738Y315722D02*
X896620Y315722D01*
D30*
X896620Y315722D03*
D28*
X697738Y315722D02*
X688340Y325120D01*
X849310Y690640D02*
X894320Y690640D01*
X895350Y689610D01*
D30*
X895350Y689610D03*
D32*
X451250Y511250D02*
X444340Y518160D01*
X441960Y518160D01*
D30*
X441960Y518160D03*
X802640Y680720D03*
D28*
X849230Y680720D01*
X849310Y680640D01*
X580860Y494580D02*
X570866Y494580D01*
X557536Y481250D01*
X580860Y494580D02*
X595120Y494580D01*
X596060Y493640D01*
X557536Y481250D02*
X511250Y481250D01*
X693540Y424300D02*
X732000Y424300D01*
X693540Y424300D02*
X693420Y424180D01*
X678300Y439300D01*
X601500Y439300D01*
X2169160Y596120D02*
X2357120Y596120D01*
X2169160Y596120D02*
X1976120Y596120D01*
X1785620Y596120D01*
X1595120Y596120D01*
X1404620Y596120D01*
X1214120Y596120D02*
X1023620Y596120D01*
X1214120Y596120D02*
X1404620Y596120D01*
X1023620Y596120D02*
X833120Y596120D01*
X642620Y596120D01*
X452120Y596120D02*
X261620Y596120D01*
X267970Y509270D02*
X244950Y486250D01*
X223520Y486250D01*
X267970Y509270D02*
X302260Y509270D01*
X325280Y486250D01*
X441250Y486250D01*
X261620Y596120D02*
X225280Y596120D01*
X214599Y585439D02*
X214599Y495172D01*
X223520Y486250D01*
X214599Y585439D02*
X225280Y596120D01*
X452120Y596120D02*
X470408Y596120D01*
D30*
X470408Y596120D03*
X494284Y596120D03*
D28*
X642620Y596120D01*
X642620Y405620D02*
X645160Y405620D01*
X833120Y405620D01*
X1023620Y405620D01*
X1214120Y405620D01*
X1404620Y405620D01*
X1404980Y405980D01*
X1595040Y405980D01*
X1785260Y405980D01*
X1785620Y405620D01*
X1976120Y405620D01*
X2166620Y405620D02*
X2357120Y405620D01*
X2166620Y405620D02*
X1976120Y405620D01*
X299720Y438150D02*
X269480Y438150D01*
X246380Y461250D01*
X299720Y438150D02*
X322820Y461250D01*
X426720Y461250D02*
X441250Y461250D01*
X426720Y461250D02*
X422670Y457200D01*
X393700Y457200D02*
X389650Y461250D01*
X322820Y461250D01*
X393700Y457200D02*
X422670Y457200D01*
X261620Y405620D02*
X127780Y405620D01*
X118110Y415290D01*
X118110Y452120D02*
X127240Y461250D01*
X246380Y461250D01*
X118110Y452120D02*
X118110Y415290D01*
X261620Y405620D02*
X262400Y406400D01*
X411480Y406400D01*
D30*
X444138Y406400D03*
D28*
X411480Y406400D01*
D30*
X498362Y406400D03*
D28*
X644380Y406400D01*
X645160Y405620D01*
X384320Y348760D02*
X384320Y330200D01*
X384320Y348760D02*
X411480Y375920D01*
X411480Y406400D01*
D30*
X421640Y786620D03*
X491490Y786620D03*
D32*
X642130Y786130D02*
X642620Y786620D01*
X642130Y786130D02*
X641640Y786620D01*
D28*
X248920Y476250D02*
X121920Y476250D01*
X322580Y476250D02*
X441250Y476250D01*
X274320Y501650D02*
X248920Y476250D01*
X297180Y501650D02*
X322580Y476250D01*
X297180Y501650D02*
X274320Y501650D01*
X111760Y777240D02*
X121140Y786620D01*
X111760Y777240D02*
X111760Y486410D01*
X121920Y476250D01*
X121140Y786620D02*
X261620Y786620D01*
X421640Y786620D01*
X452120Y786620D01*
X491490Y786620D02*
X641640Y786620D01*
X642620Y786620D02*
X833120Y786620D01*
X1023620Y786620D01*
X1214120Y786620D01*
X1404620Y786620D01*
X1595120Y786620D01*
X1785620Y786620D01*
X1976120Y786620D01*
X2166620Y786620D01*
X2358390Y786620D01*
X482600Y240912D02*
X456250Y267262D01*
D30*
X482600Y240912D03*
X482600Y208008D03*
D28*
X456250Y267262D02*
X456250Y441250D01*
X482600Y121920D02*
X492760Y111760D01*
X1071880Y111760D01*
X1102360Y142240D01*
X1134110Y142240D01*
X1314450Y111760D02*
X1344930Y142240D01*
X1371600Y142240D01*
X1402080Y111760D01*
X482600Y121920D02*
X482600Y208008D01*
X1134110Y142240D02*
X1164590Y111760D01*
X1314450Y111760D01*
X1402080Y111760D02*
X2250440Y111760D01*
X2260600Y121920D01*
X2260600Y139700D01*
X473710Y261620D02*
X461250Y274080D01*
X635000Y261620D02*
X650240Y246380D01*
X683260Y246380D01*
X698500Y261620D01*
X1088390Y261620D01*
X1102360Y247650D01*
X1134110Y247650D01*
X1148080Y261620D01*
X1330960Y261620D01*
X1344930Y247650D01*
X1372870Y247650D01*
X1386840Y261620D01*
X1790700Y261620D01*
X1793240Y259080D01*
X1826260Y259080D01*
X1828800Y261620D01*
X2070100Y273050D02*
X2070100Y330200D01*
X461250Y274080D02*
X461250Y441250D01*
X473710Y261620D02*
X635000Y261620D01*
X1828800Y261620D02*
X2058670Y261620D01*
X2070100Y273050D01*
X478790Y266700D02*
X466250Y279240D01*
X478790Y266700D02*
X637540Y266700D01*
X652780Y251460D02*
X680720Y251460D01*
X466250Y279240D02*
X466250Y441250D01*
X637540Y266700D02*
X652780Y251460D01*
X680720Y251460D02*
X694690Y265430D01*
X1760220Y297180D02*
X1793240Y330200D01*
X1879600Y330200D01*
X896620Y297180D02*
X864870Y265430D01*
X896620Y297180D02*
X1760220Y297180D01*
X864870Y265430D02*
X694690Y265430D01*
X482600Y271780D02*
X471250Y283130D01*
X640080Y271780D02*
X654050Y257810D01*
X679450Y257810D01*
X1689100Y314960D02*
X1689100Y330200D01*
X471250Y283130D02*
X471250Y441250D01*
X482600Y271780D02*
X640080Y271780D01*
X679450Y257810D02*
X690880Y269240D01*
X1675130Y300990D02*
X1689100Y314960D01*
X894080Y300990D02*
X862330Y269240D01*
X894080Y300990D02*
X1675130Y300990D01*
X862330Y269240D02*
X690880Y269240D01*
X481250Y321390D02*
X481250Y441250D01*
X481250Y321390D02*
X497840Y304800D01*
X568960Y304800D01*
X574040Y309880D01*
X640080Y309880D01*
X645160Y314960D01*
X685800Y314960D01*
X695960Y304800D01*
X1473200Y304800D01*
X1498600Y330200D01*
X486250Y325120D02*
X486250Y441250D01*
X486250Y325120D02*
X501490Y309880D01*
X563880Y309880D01*
X568960Y314960D01*
X635000Y314960D01*
X640080Y320040D01*
X687070Y320040D01*
X698500Y308610D01*
X1286510Y308610D01*
X1308100Y330200D01*
X1117600Y487680D02*
X1117600Y520700D01*
X570070Y466250D02*
X511250Y466250D01*
X570070Y466250D02*
X577850Y458470D01*
X1088390Y458470D02*
X1117600Y487680D01*
X1088390Y458470D02*
X577850Y458470D01*
X927100Y491696D02*
X927100Y520700D01*
X927100Y491696D02*
X897684Y462280D01*
X570150Y471250D02*
X511250Y471250D01*
X570150Y471250D02*
X579120Y462280D01*
X897684Y462280D01*
X486250Y511250D02*
X486250Y521912D01*
X487172Y522834D01*
X584200Y711200D02*
X736600Y711200D01*
X584200Y711200D02*
X563880Y731520D01*
X530860Y731520D01*
X487172Y687832D01*
X487172Y522834D01*
X511250Y501250D02*
X519030Y501250D01*
X538480Y520700D02*
X546100Y520700D01*
X538480Y520700D02*
X519030Y501250D01*
X355600Y330200D02*
X355600Y320040D01*
X365760Y309880D01*
X441960Y309880D02*
X451250Y319170D01*
X451250Y441250D01*
X441960Y309880D02*
X365760Y309880D01*
X246300Y481250D02*
X177800Y481250D01*
X323930Y481250D02*
X441250Y481250D01*
X270510Y505460D02*
X246300Y481250D01*
X270510Y505460D02*
X299720Y505460D01*
X323930Y481250D01*
X165100Y493950D02*
X165100Y520700D01*
X165100Y493950D02*
X177800Y481250D01*
X261620Y215120D02*
X452120Y215120D01*
X642540Y215120D01*
X833040Y215120D01*
X1023620Y215120D01*
X1309370Y215120D01*
X1595120Y215120D01*
X1785620Y215120D01*
X1976120Y215120D01*
X2166620Y215120D01*
X2357120Y215120D01*
X252650Y471250D02*
X119380Y471250D01*
X318770Y471250D02*
X441250Y471250D01*
X275590Y448310D02*
X252650Y471250D01*
X275590Y448310D02*
X295830Y448310D01*
X318770Y471250D01*
X261620Y215120D02*
X121430Y215120D01*
X107950Y228600D01*
X107950Y459820D01*
X119380Y471250D01*
X476250Y441250D02*
X476250Y316230D01*
X492760Y299720D01*
X574040Y299720D01*
X579120Y304800D01*
X645160Y304800D01*
X651372Y311012D01*
X682128Y311012D01*
X695452Y297688D01*
D30*
X878840Y297688D03*
D28*
X695452Y297688D01*
X849390Y670560D02*
X849310Y670640D01*
X849390Y670560D02*
X877570Y670560D01*
D30*
X877570Y670560D03*
D28*
X501250Y521570D02*
X501250Y511250D01*
X501250Y521570D02*
X514382Y534702D01*
X557499Y534702D01*
X577850Y514350D01*
X654050Y514350D02*
X695960Y472440D01*
X861060Y472440D01*
D30*
X861060Y472440D03*
D28*
X654050Y514350D02*
X577850Y514350D01*
D32*
X849310Y650640D02*
X861930Y650640D01*
X862330Y650240D01*
D30*
X862330Y650240D03*
D28*
X441250Y466250D02*
X424340Y466250D01*
X422910Y464820D01*
X413270Y464820D01*
M02*
