G04 EAGLE Gerber RS-274X export*
G75*
%MOMM*%
%FSLAX34Y34*%
%LPD*%
%INSolderpaste Bottom*%
%IPPOS*%
%AMOC8*
5,1,8,0,0,1.08239X$1,22.5*%
G01*
%ADD10R,1.700000X1.100000*%
%ADD11R,1.800000X0.820000*%
%ADD12R,0.800000X0.550000*%
%ADD13R,1.100000X1.700000*%
%ADD14R,0.550000X0.800000*%
%ADD15R,0.300000X1.150000*%
%ADD16R,0.600000X1.150000*%
%ADD17R,0.550000X0.550000*%
%ADD18R,0.300000X1.300000*%
%ADD19R,1.300000X0.300000*%
%ADD20R,5.200000X5.200000*%
%ADD21R,1.400000X1.200000*%
%ADD22R,1.550000X0.600000*%
%ADD23R,2.000000X1.500000*%
%ADD24R,1.360000X1.230000*%


D10*
X261620Y786620D03*
X261620Y752620D03*
D11*
X160500Y820300D03*
X160500Y805300D03*
X220500Y820300D03*
X220500Y805300D03*
D12*
X131710Y820420D03*
X142610Y820420D03*
D10*
X452120Y786620D03*
X452120Y752620D03*
D11*
X351000Y820300D03*
X351000Y805300D03*
X411000Y820300D03*
X411000Y805300D03*
D12*
X322210Y820420D03*
X333110Y820420D03*
D10*
X642620Y786620D03*
X642620Y752620D03*
D11*
X541500Y820300D03*
X541500Y805300D03*
X601500Y820300D03*
X601500Y805300D03*
D12*
X546470Y833120D03*
X535570Y833120D03*
D10*
X833120Y786620D03*
X833120Y752620D03*
D11*
X732000Y820300D03*
X732000Y805300D03*
X792000Y820300D03*
X792000Y805300D03*
D12*
X703210Y820420D03*
X714110Y820420D03*
D10*
X1023620Y786620D03*
X1023620Y752620D03*
D11*
X922500Y820300D03*
X922500Y805300D03*
X982500Y820300D03*
X982500Y805300D03*
D12*
X893710Y820420D03*
X904610Y820420D03*
D10*
X1214120Y786620D03*
X1214120Y752620D03*
D11*
X1113000Y820300D03*
X1113000Y805300D03*
X1173000Y820300D03*
X1173000Y805300D03*
D12*
X1084210Y820420D03*
X1095110Y820420D03*
D10*
X1404620Y786620D03*
X1404620Y752620D03*
D11*
X1303500Y820300D03*
X1303500Y805300D03*
X1363500Y820300D03*
X1363500Y805300D03*
D12*
X1274710Y820420D03*
X1285610Y820420D03*
D10*
X1595120Y786620D03*
X1595120Y752620D03*
D11*
X1494000Y820300D03*
X1494000Y805300D03*
X1554000Y820300D03*
X1554000Y805300D03*
D12*
X1465210Y820420D03*
X1476110Y820420D03*
D10*
X1785620Y786620D03*
X1785620Y752620D03*
D11*
X1684500Y820300D03*
X1684500Y805300D03*
X1744500Y820300D03*
X1744500Y805300D03*
D12*
X1655710Y820420D03*
X1666610Y820420D03*
D10*
X1976120Y786620D03*
X1976120Y752620D03*
D11*
X1875000Y820300D03*
X1875000Y805300D03*
X1935000Y820300D03*
X1935000Y805300D03*
D12*
X1846210Y820420D03*
X1857110Y820420D03*
D10*
X2166620Y786620D03*
X2166620Y752620D03*
D11*
X2065500Y820300D03*
X2065500Y805300D03*
X2125500Y820300D03*
X2125500Y805300D03*
D12*
X2036710Y820420D03*
X2047610Y820420D03*
D10*
X2358390Y786620D03*
X2358390Y752620D03*
D11*
X2256000Y820300D03*
X2256000Y805300D03*
X2316000Y820300D03*
X2316000Y805300D03*
D12*
X2227210Y820420D03*
X2238110Y820420D03*
D10*
X261620Y596120D03*
X261620Y562120D03*
D11*
X220500Y614800D03*
X220500Y629800D03*
X160500Y614800D03*
X160500Y629800D03*
D12*
X238390Y614680D03*
X249290Y614680D03*
D10*
X452120Y596120D03*
X452120Y562120D03*
D11*
X411000Y614800D03*
X411000Y629800D03*
X351000Y614800D03*
X351000Y629800D03*
D12*
X428890Y614680D03*
X439790Y614680D03*
D10*
X642620Y596120D03*
X642620Y562120D03*
D11*
X601500Y614800D03*
X601500Y629800D03*
X541500Y614800D03*
X541500Y629800D03*
D12*
X619390Y614680D03*
X630290Y614680D03*
D10*
X833120Y596120D03*
X833120Y562120D03*
D11*
X792000Y614800D03*
X792000Y629800D03*
X732000Y614800D03*
X732000Y629800D03*
D12*
X809890Y614680D03*
X820790Y614680D03*
D10*
X1023620Y596120D03*
X1023620Y562120D03*
D11*
X982500Y614800D03*
X982500Y629800D03*
X922500Y614800D03*
X922500Y629800D03*
D12*
X1000390Y614680D03*
X1011290Y614680D03*
D10*
X1214120Y596120D03*
X1214120Y562120D03*
D11*
X1173000Y614800D03*
X1173000Y629800D03*
X1113000Y614800D03*
X1113000Y629800D03*
D12*
X1190890Y614680D03*
X1201790Y614680D03*
D10*
X1404620Y596120D03*
X1404620Y562120D03*
D11*
X1363500Y614800D03*
X1363500Y629800D03*
X1303500Y614800D03*
X1303500Y629800D03*
D12*
X1381390Y614680D03*
X1392290Y614680D03*
D10*
X1595120Y596120D03*
X1595120Y562120D03*
D11*
X1554000Y614800D03*
X1554000Y629800D03*
X1494000Y614800D03*
X1494000Y629800D03*
D12*
X1571890Y614680D03*
X1582790Y614680D03*
D10*
X1785620Y596120D03*
X1785620Y562120D03*
D11*
X1744500Y614800D03*
X1744500Y629800D03*
X1684500Y614800D03*
X1684500Y629800D03*
D12*
X1762390Y614680D03*
X1773290Y614680D03*
D10*
X1976120Y596120D03*
X1976120Y562120D03*
D11*
X1935000Y614800D03*
X1935000Y629800D03*
X1875000Y614800D03*
X1875000Y629800D03*
D12*
X1952890Y614680D03*
X1963790Y614680D03*
D10*
X2169160Y596120D03*
X2169160Y562120D03*
D11*
X2125500Y614800D03*
X2125500Y629800D03*
X2065500Y614800D03*
X2065500Y629800D03*
D12*
X2143390Y614680D03*
X2154290Y614680D03*
D10*
X2357120Y596120D03*
X2357120Y562120D03*
D11*
X2316000Y614800D03*
X2316000Y629800D03*
X2256000Y614800D03*
X2256000Y629800D03*
D12*
X2333890Y614680D03*
X2344790Y614680D03*
D10*
X261620Y405620D03*
X261620Y371620D03*
D11*
X160500Y439300D03*
X160500Y424300D03*
X220500Y439300D03*
X220500Y424300D03*
D12*
X131710Y439420D03*
X142610Y439420D03*
D13*
X384320Y330200D03*
X418320Y330200D03*
D11*
X351000Y439300D03*
X351000Y424300D03*
X411000Y439300D03*
X411000Y424300D03*
D12*
X322210Y439420D03*
X333110Y439420D03*
D10*
X642620Y405620D03*
X642620Y371620D03*
D11*
X541500Y439300D03*
X541500Y424300D03*
X601500Y439300D03*
X601500Y424300D03*
D14*
X525780Y447410D03*
X525780Y436510D03*
D10*
X833120Y405620D03*
X833120Y371620D03*
D11*
X732000Y439300D03*
X732000Y424300D03*
X792000Y439300D03*
X792000Y424300D03*
D12*
X703210Y439420D03*
X714110Y439420D03*
D10*
X1023620Y405620D03*
X1023620Y371620D03*
D11*
X922500Y439300D03*
X922500Y424300D03*
X982500Y439300D03*
X982500Y424300D03*
D12*
X893710Y439420D03*
X904610Y439420D03*
D10*
X1214120Y405620D03*
X1214120Y371620D03*
D11*
X1113000Y439300D03*
X1113000Y424300D03*
X1173000Y439300D03*
X1173000Y424300D03*
D12*
X1084210Y439420D03*
X1095110Y439420D03*
D10*
X1404620Y405620D03*
X1404620Y371620D03*
D11*
X1303500Y439300D03*
X1303500Y424300D03*
X1363500Y439300D03*
X1363500Y424300D03*
D12*
X1274710Y439420D03*
X1285610Y439420D03*
D10*
X1595040Y405980D03*
X1595040Y371980D03*
D11*
X1494000Y439300D03*
X1494000Y424300D03*
X1554000Y439300D03*
X1554000Y424300D03*
D12*
X1465210Y439420D03*
X1476110Y439420D03*
D10*
X1785620Y405620D03*
X1785620Y371620D03*
D11*
X1684500Y439300D03*
X1684500Y424300D03*
X1744500Y439300D03*
X1744500Y424300D03*
D12*
X1655710Y439420D03*
X1666610Y439420D03*
D10*
X1976120Y405620D03*
X1976120Y371620D03*
D11*
X1875000Y439300D03*
X1875000Y424300D03*
X1935000Y439300D03*
X1935000Y424300D03*
D12*
X1846210Y439420D03*
X1857110Y439420D03*
D10*
X2166620Y405620D03*
X2166620Y371620D03*
D11*
X2065500Y439300D03*
X2065500Y424300D03*
X2125500Y439300D03*
X2125500Y424300D03*
D12*
X2036710Y439420D03*
X2047610Y439420D03*
D10*
X2357120Y405620D03*
X2357120Y371620D03*
D11*
X2256000Y439300D03*
X2256000Y424300D03*
X2316000Y439300D03*
X2316000Y424300D03*
D12*
X2227210Y439420D03*
X2238110Y439420D03*
D10*
X261620Y215120D03*
X261620Y181120D03*
D11*
X220500Y233800D03*
X220500Y248800D03*
X160500Y233800D03*
X160500Y248800D03*
D12*
X238390Y233600D03*
X249290Y233600D03*
D10*
X452120Y215120D03*
X452120Y181120D03*
D11*
X411000Y233800D03*
X411000Y248800D03*
X351000Y233800D03*
X351000Y248800D03*
D12*
X428890Y233600D03*
X439790Y233600D03*
D10*
X642540Y215120D03*
X642540Y181120D03*
D11*
X601500Y233800D03*
X601500Y248800D03*
X541500Y233800D03*
X541500Y248800D03*
D12*
X619390Y233600D03*
X630290Y233600D03*
D10*
X833040Y215120D03*
X833040Y181120D03*
D11*
X792000Y233800D03*
X792000Y248800D03*
X732000Y233800D03*
X732000Y248800D03*
D12*
X809890Y233600D03*
X820790Y233600D03*
D10*
X1023620Y215120D03*
X1023620Y181120D03*
D11*
X982500Y233800D03*
X982500Y248800D03*
X922500Y233800D03*
X922500Y248800D03*
D12*
X1000390Y233600D03*
X1011290Y233600D03*
D10*
X1309370Y215120D03*
X1309370Y181120D03*
D11*
X1268250Y233800D03*
X1268250Y248800D03*
X1208250Y233800D03*
X1208250Y248800D03*
D12*
X1287410Y233680D03*
X1298310Y233680D03*
D10*
X1595120Y215120D03*
X1595120Y181120D03*
D11*
X1554000Y233800D03*
X1554000Y248800D03*
X1494000Y233800D03*
X1494000Y248800D03*
D12*
X1571890Y233680D03*
X1582790Y233680D03*
D10*
X1785620Y215120D03*
X1785620Y181120D03*
D11*
X1744500Y233800D03*
X1744500Y248800D03*
X1684500Y233800D03*
X1684500Y248800D03*
D12*
X1762390Y233680D03*
X1773290Y233680D03*
D10*
X1976120Y215120D03*
X1976120Y181120D03*
D11*
X1935000Y233800D03*
X1935000Y248800D03*
X1875000Y233800D03*
X1875000Y248800D03*
D12*
X1952890Y233680D03*
X1963790Y233680D03*
D10*
X2166620Y215120D03*
X2166620Y181120D03*
D11*
X2125500Y233800D03*
X2125500Y248800D03*
X2065500Y233800D03*
X2065500Y248800D03*
D12*
X2143390Y233680D03*
X2154290Y233680D03*
D10*
X2357120Y215120D03*
X2357120Y181120D03*
D11*
X2316000Y233800D03*
X2316000Y248800D03*
X2256000Y233800D03*
X2256000Y248800D03*
D12*
X2333890Y233680D03*
X2344790Y233680D03*
D15*
X473750Y810560D03*
X468750Y810560D03*
X463750Y810560D03*
X458750Y810560D03*
X478750Y810560D03*
X483750Y810560D03*
X488750Y810560D03*
X493750Y810560D03*
D16*
X452250Y810560D03*
X444250Y810560D03*
X500250Y810560D03*
X508250Y810560D03*
D17*
X542810Y843280D03*
X534150Y843280D03*
X409690Y843280D03*
X418350Y843280D03*
D18*
X456250Y511250D03*
X451250Y511250D03*
X461250Y511250D03*
X466250Y511250D03*
X471250Y511250D03*
X476250Y511250D03*
X481250Y511250D03*
X486250Y511250D03*
X491250Y511250D03*
X496250Y511250D03*
X501250Y511250D03*
D19*
X511250Y501250D03*
X511250Y496250D03*
X511250Y491250D03*
X511250Y486250D03*
X511250Y481250D03*
X511250Y476250D03*
X511250Y471250D03*
X511250Y466250D03*
X511250Y461250D03*
X511250Y456250D03*
X511250Y451250D03*
D18*
X501250Y441250D03*
X496250Y441250D03*
X491250Y441250D03*
X486250Y441250D03*
X481250Y441250D03*
X476250Y441250D03*
X471250Y441250D03*
X466250Y441250D03*
X461250Y441250D03*
X456250Y441250D03*
X451250Y441250D03*
D19*
X441250Y451250D03*
X441250Y456250D03*
X441250Y461250D03*
X441250Y466250D03*
X441250Y471250D03*
X441250Y476250D03*
X441250Y481250D03*
X441250Y486250D03*
X441250Y491250D03*
X441250Y496250D03*
X441250Y501250D03*
D20*
X476250Y476250D03*
D17*
X482600Y766330D03*
X482600Y757670D03*
X469900Y766330D03*
X469900Y757670D03*
X530860Y490810D03*
X530860Y499470D03*
D14*
X472440Y538850D03*
X472440Y527950D03*
D21*
X618060Y476640D03*
X596060Y476640D03*
X596060Y493640D03*
X618060Y493640D03*
D14*
X633420Y496850D03*
X633420Y485950D03*
X580860Y494580D03*
X580860Y483680D03*
D12*
X503820Y429260D03*
X514720Y429260D03*
D14*
X431720Y442610D03*
X431720Y431710D03*
D12*
X427090Y501650D03*
X416190Y501650D03*
D14*
X454660Y530490D03*
X454660Y541390D03*
D17*
X413270Y464820D03*
X404610Y464820D03*
D22*
X849310Y710640D03*
X849310Y700640D03*
X849310Y690640D03*
X849310Y680640D03*
X849310Y670640D03*
X849310Y660640D03*
X849310Y650640D03*
X849310Y640640D03*
D23*
X888060Y627640D03*
X888060Y723640D03*
D24*
X558800Y499370D03*
X558800Y455670D03*
M02*
