G04 EAGLE Gerber RS-274X export*
G75*
%MOMM*%
%FSLAX34Y34*%
%LPD*%
%INSoldermask Bottom*%
%IPPOS*%
%AMOC8*
5,1,8,0,0,1.08239X$1,22.5*%
G01*
%ADD10C,4.191000*%
%ADD11C,1.905000*%
%ADD12C,2.451100*%
%ADD13R,1.903200X1.303200*%
%ADD14R,2.003200X1.023200*%
%ADD15R,1.003200X0.753200*%
%ADD16R,1.303200X1.903200*%
%ADD17R,0.753200X1.003200*%
%ADD18R,0.503200X1.353200*%
%ADD19R,0.803200X1.353200*%
%ADD20C,1.203200*%
%ADD21C,0.853200*%
%ADD22C,4.703200*%
%ADD23R,0.753200X0.753200*%
%ADD24R,0.503200X1.503200*%
%ADD25R,1.503200X0.503200*%
%ADD26R,5.403200X5.403200*%
%ADD27R,1.603200X1.403200*%
%ADD28R,1.753200X0.803200*%
%ADD29R,2.203200X1.703200*%
%ADD30R,1.563200X1.433200*%
%ADD31C,0.813200*%


D10*
X190500Y762000D03*
D11*
X241300Y762000D03*
X139700Y762000D03*
D12*
X228600Y736600D03*
X165100Y711200D03*
D13*
X261620Y786620D03*
X261620Y752620D03*
D14*
X160500Y820300D03*
X160500Y805300D03*
X220500Y820300D03*
X220500Y805300D03*
D15*
X131710Y820420D03*
X142610Y820420D03*
D10*
X381000Y762000D03*
D11*
X431800Y762000D03*
X330200Y762000D03*
D12*
X419100Y736600D03*
X355600Y711200D03*
D13*
X452120Y786620D03*
X452120Y752620D03*
D14*
X351000Y820300D03*
X351000Y805300D03*
X411000Y820300D03*
X411000Y805300D03*
D15*
X322210Y820420D03*
X333110Y820420D03*
D10*
X571500Y762000D03*
D11*
X622300Y762000D03*
X520700Y762000D03*
D12*
X609600Y736600D03*
X546100Y711200D03*
D13*
X642620Y786620D03*
X642620Y752620D03*
D14*
X541500Y820300D03*
X541500Y805300D03*
X601500Y820300D03*
X601500Y805300D03*
D15*
X546470Y833120D03*
X535570Y833120D03*
D10*
X762000Y762000D03*
D11*
X812800Y762000D03*
X711200Y762000D03*
D12*
X800100Y736600D03*
X736600Y711200D03*
D13*
X833120Y786620D03*
X833120Y752620D03*
D14*
X732000Y820300D03*
X732000Y805300D03*
X792000Y820300D03*
X792000Y805300D03*
D15*
X703210Y820420D03*
X714110Y820420D03*
D10*
X952500Y762000D03*
D11*
X1003300Y762000D03*
X901700Y762000D03*
D12*
X990600Y736600D03*
X927100Y711200D03*
D13*
X1023620Y786620D03*
X1023620Y752620D03*
D14*
X922500Y820300D03*
X922500Y805300D03*
X982500Y820300D03*
X982500Y805300D03*
D15*
X893710Y820420D03*
X904610Y820420D03*
D10*
X1143000Y762000D03*
D11*
X1193800Y762000D03*
X1092200Y762000D03*
D12*
X1181100Y736600D03*
X1117600Y711200D03*
D13*
X1214120Y786620D03*
X1214120Y752620D03*
D14*
X1113000Y820300D03*
X1113000Y805300D03*
X1173000Y820300D03*
X1173000Y805300D03*
D15*
X1084210Y820420D03*
X1095110Y820420D03*
D10*
X1333500Y762000D03*
D11*
X1384300Y762000D03*
X1282700Y762000D03*
D12*
X1371600Y736600D03*
X1308100Y711200D03*
D13*
X1404620Y786620D03*
X1404620Y752620D03*
D14*
X1303500Y820300D03*
X1303500Y805300D03*
X1363500Y820300D03*
X1363500Y805300D03*
D15*
X1274710Y820420D03*
X1285610Y820420D03*
D10*
X1524000Y762000D03*
D11*
X1574800Y762000D03*
X1473200Y762000D03*
D12*
X1562100Y736600D03*
X1498600Y711200D03*
D13*
X1595120Y786620D03*
X1595120Y752620D03*
D14*
X1494000Y820300D03*
X1494000Y805300D03*
X1554000Y820300D03*
X1554000Y805300D03*
D15*
X1465210Y820420D03*
X1476110Y820420D03*
D10*
X1714500Y762000D03*
D11*
X1765300Y762000D03*
X1663700Y762000D03*
D12*
X1752600Y736600D03*
X1689100Y711200D03*
D13*
X1785620Y786620D03*
X1785620Y752620D03*
D14*
X1684500Y820300D03*
X1684500Y805300D03*
X1744500Y820300D03*
X1744500Y805300D03*
D15*
X1655710Y820420D03*
X1666610Y820420D03*
D10*
X1905000Y762000D03*
D11*
X1955800Y762000D03*
X1854200Y762000D03*
D12*
X1943100Y736600D03*
X1879600Y711200D03*
D13*
X1976120Y786620D03*
X1976120Y752620D03*
D14*
X1875000Y820300D03*
X1875000Y805300D03*
X1935000Y820300D03*
X1935000Y805300D03*
D15*
X1846210Y820420D03*
X1857110Y820420D03*
D10*
X2095500Y762000D03*
D11*
X2146300Y762000D03*
X2044700Y762000D03*
D12*
X2133600Y736600D03*
X2070100Y711200D03*
D13*
X2166620Y786620D03*
X2166620Y752620D03*
D14*
X2065500Y820300D03*
X2065500Y805300D03*
X2125500Y820300D03*
X2125500Y805300D03*
D15*
X2036710Y820420D03*
X2047610Y820420D03*
D10*
X2286000Y762000D03*
D11*
X2336800Y762000D03*
X2235200Y762000D03*
D12*
X2324100Y736600D03*
X2260600Y711200D03*
D13*
X2358390Y786620D03*
X2358390Y752620D03*
D14*
X2256000Y820300D03*
X2256000Y805300D03*
X2316000Y820300D03*
X2316000Y805300D03*
D15*
X2227210Y820420D03*
X2238110Y820420D03*
D10*
X190500Y571500D03*
D11*
X241300Y571500D03*
X139700Y571500D03*
D12*
X228600Y546100D03*
X165100Y520700D03*
D13*
X261620Y596120D03*
X261620Y562120D03*
D14*
X220500Y614800D03*
X220500Y629800D03*
X160500Y614800D03*
X160500Y629800D03*
D15*
X238390Y614680D03*
X249290Y614680D03*
D10*
X381000Y571500D03*
D11*
X431800Y571500D03*
X330200Y571500D03*
D12*
X419100Y546100D03*
X355600Y520700D03*
D13*
X452120Y596120D03*
X452120Y562120D03*
D14*
X411000Y614800D03*
X411000Y629800D03*
X351000Y614800D03*
X351000Y629800D03*
D15*
X428890Y614680D03*
X439790Y614680D03*
D10*
X571500Y571500D03*
D11*
X622300Y571500D03*
X520700Y571500D03*
D12*
X609600Y546100D03*
X546100Y520700D03*
D13*
X642620Y596120D03*
X642620Y562120D03*
D14*
X601500Y614800D03*
X601500Y629800D03*
X541500Y614800D03*
X541500Y629800D03*
D15*
X619390Y614680D03*
X630290Y614680D03*
D10*
X762000Y571500D03*
D11*
X812800Y571500D03*
X711200Y571500D03*
D12*
X800100Y546100D03*
X736600Y520700D03*
D13*
X833120Y596120D03*
X833120Y562120D03*
D14*
X792000Y614800D03*
X792000Y629800D03*
X732000Y614800D03*
X732000Y629800D03*
D15*
X809890Y614680D03*
X820790Y614680D03*
D10*
X952500Y571500D03*
D11*
X1003300Y571500D03*
X901700Y571500D03*
D12*
X990600Y546100D03*
X927100Y520700D03*
D13*
X1023620Y596120D03*
X1023620Y562120D03*
D14*
X982500Y614800D03*
X982500Y629800D03*
X922500Y614800D03*
X922500Y629800D03*
D15*
X1000390Y614680D03*
X1011290Y614680D03*
D10*
X1143000Y571500D03*
D11*
X1193800Y571500D03*
X1092200Y571500D03*
D12*
X1181100Y546100D03*
X1117600Y520700D03*
D13*
X1214120Y596120D03*
X1214120Y562120D03*
D14*
X1173000Y614800D03*
X1173000Y629800D03*
X1113000Y614800D03*
X1113000Y629800D03*
D15*
X1190890Y614680D03*
X1201790Y614680D03*
D10*
X1333500Y571500D03*
D11*
X1384300Y571500D03*
X1282700Y571500D03*
D12*
X1371600Y546100D03*
X1308100Y520700D03*
D13*
X1404620Y596120D03*
X1404620Y562120D03*
D14*
X1363500Y614800D03*
X1363500Y629800D03*
X1303500Y614800D03*
X1303500Y629800D03*
D15*
X1381390Y614680D03*
X1392290Y614680D03*
D10*
X1524000Y571500D03*
D11*
X1574800Y571500D03*
X1473200Y571500D03*
D12*
X1562100Y546100D03*
X1498600Y520700D03*
D13*
X1595120Y596120D03*
X1595120Y562120D03*
D14*
X1554000Y614800D03*
X1554000Y629800D03*
X1494000Y614800D03*
X1494000Y629800D03*
D15*
X1571890Y614680D03*
X1582790Y614680D03*
D10*
X1714500Y571500D03*
D11*
X1765300Y571500D03*
X1663700Y571500D03*
D12*
X1752600Y546100D03*
X1689100Y520700D03*
D13*
X1785620Y596120D03*
X1785620Y562120D03*
D14*
X1744500Y614800D03*
X1744500Y629800D03*
X1684500Y614800D03*
X1684500Y629800D03*
D15*
X1762390Y614680D03*
X1773290Y614680D03*
D10*
X1905000Y571500D03*
D11*
X1955800Y571500D03*
X1854200Y571500D03*
D12*
X1943100Y546100D03*
X1879600Y520700D03*
D13*
X1976120Y596120D03*
X1976120Y562120D03*
D14*
X1935000Y614800D03*
X1935000Y629800D03*
X1875000Y614800D03*
X1875000Y629800D03*
D15*
X1952890Y614680D03*
X1963790Y614680D03*
D10*
X2095500Y571500D03*
D11*
X2146300Y571500D03*
X2044700Y571500D03*
D12*
X2133600Y546100D03*
X2070100Y520700D03*
D13*
X2169160Y596120D03*
X2169160Y562120D03*
D14*
X2125500Y614800D03*
X2125500Y629800D03*
X2065500Y614800D03*
X2065500Y629800D03*
D15*
X2143390Y614680D03*
X2154290Y614680D03*
D10*
X2286000Y571500D03*
D11*
X2336800Y571500D03*
X2235200Y571500D03*
D12*
X2324100Y546100D03*
X2260600Y520700D03*
D13*
X2357120Y596120D03*
X2357120Y562120D03*
D14*
X2316000Y614800D03*
X2316000Y629800D03*
X2256000Y614800D03*
X2256000Y629800D03*
D15*
X2333890Y614680D03*
X2344790Y614680D03*
D10*
X190500Y381000D03*
D11*
X241300Y381000D03*
X139700Y381000D03*
D12*
X228600Y355600D03*
X165100Y330200D03*
D13*
X261620Y405620D03*
X261620Y371620D03*
D14*
X160500Y439300D03*
X160500Y424300D03*
X220500Y439300D03*
X220500Y424300D03*
D15*
X131710Y439420D03*
X142610Y439420D03*
D10*
X381000Y381000D03*
D11*
X431800Y381000D03*
X330200Y381000D03*
D12*
X419100Y355600D03*
X355600Y330200D03*
D16*
X384320Y330200D03*
X418320Y330200D03*
D14*
X351000Y439300D03*
X351000Y424300D03*
X411000Y439300D03*
X411000Y424300D03*
D15*
X322210Y439420D03*
X333110Y439420D03*
D10*
X571500Y381000D03*
D11*
X622300Y381000D03*
X520700Y381000D03*
D12*
X609600Y355600D03*
X546100Y330200D03*
D13*
X642620Y405620D03*
X642620Y371620D03*
D14*
X541500Y439300D03*
X541500Y424300D03*
X601500Y439300D03*
X601500Y424300D03*
D17*
X525780Y447410D03*
X525780Y436510D03*
D10*
X762000Y381000D03*
D11*
X812800Y381000D03*
X711200Y381000D03*
D12*
X800100Y355600D03*
X736600Y330200D03*
D13*
X833120Y405620D03*
X833120Y371620D03*
D14*
X732000Y439300D03*
X732000Y424300D03*
X792000Y439300D03*
X792000Y424300D03*
D15*
X703210Y439420D03*
X714110Y439420D03*
D10*
X952500Y381000D03*
D11*
X1003300Y381000D03*
X901700Y381000D03*
D12*
X990600Y355600D03*
X927100Y330200D03*
D13*
X1023620Y405620D03*
X1023620Y371620D03*
D14*
X922500Y439300D03*
X922500Y424300D03*
X982500Y439300D03*
X982500Y424300D03*
D15*
X893710Y439420D03*
X904610Y439420D03*
D10*
X1143000Y381000D03*
D11*
X1193800Y381000D03*
X1092200Y381000D03*
D12*
X1181100Y355600D03*
X1117600Y330200D03*
D13*
X1214120Y405620D03*
X1214120Y371620D03*
D14*
X1113000Y439300D03*
X1113000Y424300D03*
X1173000Y439300D03*
X1173000Y424300D03*
D15*
X1084210Y439420D03*
X1095110Y439420D03*
D10*
X1333500Y381000D03*
D11*
X1384300Y381000D03*
X1282700Y381000D03*
D12*
X1371600Y355600D03*
X1308100Y330200D03*
D13*
X1404620Y405620D03*
X1404620Y371620D03*
D14*
X1303500Y439300D03*
X1303500Y424300D03*
X1363500Y439300D03*
X1363500Y424300D03*
D15*
X1274710Y439420D03*
X1285610Y439420D03*
D10*
X1524000Y381000D03*
D11*
X1574800Y381000D03*
X1473200Y381000D03*
D12*
X1562100Y355600D03*
X1498600Y330200D03*
D13*
X1595040Y405980D03*
X1595040Y371980D03*
D14*
X1494000Y439300D03*
X1494000Y424300D03*
X1554000Y439300D03*
X1554000Y424300D03*
D15*
X1465210Y439420D03*
X1476110Y439420D03*
D10*
X1714500Y381000D03*
D11*
X1765300Y381000D03*
X1663700Y381000D03*
D12*
X1752600Y355600D03*
X1689100Y330200D03*
D13*
X1785620Y405620D03*
X1785620Y371620D03*
D14*
X1684500Y439300D03*
X1684500Y424300D03*
X1744500Y439300D03*
X1744500Y424300D03*
D15*
X1655710Y439420D03*
X1666610Y439420D03*
D10*
X1905000Y381000D03*
D11*
X1955800Y381000D03*
X1854200Y381000D03*
D12*
X1943100Y355600D03*
X1879600Y330200D03*
D13*
X1976120Y405620D03*
X1976120Y371620D03*
D14*
X1875000Y439300D03*
X1875000Y424300D03*
X1935000Y439300D03*
X1935000Y424300D03*
D15*
X1846210Y439420D03*
X1857110Y439420D03*
D10*
X2095500Y381000D03*
D11*
X2146300Y381000D03*
X2044700Y381000D03*
D12*
X2133600Y355600D03*
X2070100Y330200D03*
D13*
X2166620Y405620D03*
X2166620Y371620D03*
D14*
X2065500Y439300D03*
X2065500Y424300D03*
X2125500Y439300D03*
X2125500Y424300D03*
D15*
X2036710Y439420D03*
X2047610Y439420D03*
D10*
X2286000Y381000D03*
D11*
X2336800Y381000D03*
X2235200Y381000D03*
D12*
X2324100Y355600D03*
X2260600Y330200D03*
D13*
X2357120Y405620D03*
X2357120Y371620D03*
D14*
X2256000Y439300D03*
X2256000Y424300D03*
X2316000Y439300D03*
X2316000Y424300D03*
D15*
X2227210Y439420D03*
X2238110Y439420D03*
D10*
X190500Y190500D03*
D11*
X241300Y190500D03*
X139700Y190500D03*
D12*
X228600Y165100D03*
X165100Y139700D03*
D13*
X261620Y215120D03*
X261620Y181120D03*
D14*
X220500Y233800D03*
X220500Y248800D03*
X160500Y233800D03*
X160500Y248800D03*
D15*
X238390Y233600D03*
X249290Y233600D03*
D10*
X381000Y190500D03*
D11*
X431800Y190500D03*
X330200Y190500D03*
D12*
X419100Y165100D03*
X355600Y139700D03*
D13*
X452120Y215120D03*
X452120Y181120D03*
D14*
X411000Y233800D03*
X411000Y248800D03*
X351000Y233800D03*
X351000Y248800D03*
D15*
X428890Y233600D03*
X439790Y233600D03*
D10*
X571500Y190500D03*
D11*
X622300Y190500D03*
X520700Y190500D03*
D12*
X609600Y165100D03*
X546100Y139700D03*
D13*
X642540Y215120D03*
X642540Y181120D03*
D14*
X601500Y233800D03*
X601500Y248800D03*
X541500Y233800D03*
X541500Y248800D03*
D15*
X619390Y233600D03*
X630290Y233600D03*
D10*
X762000Y190500D03*
D11*
X812800Y190500D03*
X711200Y190500D03*
D12*
X800100Y165100D03*
X736600Y139700D03*
D13*
X833040Y215120D03*
X833040Y181120D03*
D14*
X792000Y233800D03*
X792000Y248800D03*
X732000Y233800D03*
X732000Y248800D03*
D15*
X809890Y233600D03*
X820790Y233600D03*
D10*
X952500Y190500D03*
D11*
X1003300Y190500D03*
X901700Y190500D03*
D12*
X990600Y165100D03*
X927100Y139700D03*
D13*
X1023620Y215120D03*
X1023620Y181120D03*
D14*
X982500Y233800D03*
X982500Y248800D03*
X922500Y233800D03*
X922500Y248800D03*
D15*
X1000390Y233600D03*
X1011290Y233600D03*
D10*
X1238250Y190500D03*
D11*
X1289050Y190500D03*
X1187450Y190500D03*
D12*
X1276350Y165100D03*
X1212850Y139700D03*
D13*
X1309370Y215120D03*
X1309370Y181120D03*
D14*
X1268250Y233800D03*
X1268250Y248800D03*
X1208250Y233800D03*
X1208250Y248800D03*
D15*
X1287410Y233680D03*
X1298310Y233680D03*
D10*
X1524000Y190500D03*
D11*
X1574800Y190500D03*
X1473200Y190500D03*
D12*
X1562100Y165100D03*
X1498600Y139700D03*
D13*
X1595120Y215120D03*
X1595120Y181120D03*
D14*
X1554000Y233800D03*
X1554000Y248800D03*
X1494000Y233800D03*
X1494000Y248800D03*
D15*
X1571890Y233680D03*
X1582790Y233680D03*
D10*
X1714500Y190500D03*
D11*
X1765300Y190500D03*
X1663700Y190500D03*
D12*
X1752600Y165100D03*
X1689100Y139700D03*
D13*
X1785620Y215120D03*
X1785620Y181120D03*
D14*
X1744500Y233800D03*
X1744500Y248800D03*
X1684500Y233800D03*
X1684500Y248800D03*
D15*
X1762390Y233680D03*
X1773290Y233680D03*
D10*
X1905000Y190500D03*
D11*
X1955800Y190500D03*
X1854200Y190500D03*
D12*
X1943100Y165100D03*
X1879600Y139700D03*
D13*
X1976120Y215120D03*
X1976120Y181120D03*
D14*
X1935000Y233800D03*
X1935000Y248800D03*
X1875000Y233800D03*
X1875000Y248800D03*
D15*
X1952890Y233680D03*
X1963790Y233680D03*
D10*
X2095500Y190500D03*
D11*
X2146300Y190500D03*
X2044700Y190500D03*
D12*
X2133600Y165100D03*
X2070100Y139700D03*
D13*
X2166620Y215120D03*
X2166620Y181120D03*
D14*
X2125500Y233800D03*
X2125500Y248800D03*
X2065500Y233800D03*
X2065500Y248800D03*
D15*
X2143390Y233680D03*
X2154290Y233680D03*
D10*
X2286000Y190500D03*
D11*
X2336800Y190500D03*
X2235200Y190500D03*
D12*
X2324100Y165100D03*
X2260600Y139700D03*
D13*
X2357120Y215120D03*
X2357120Y181120D03*
D14*
X2316000Y233800D03*
X2316000Y248800D03*
X2256000Y233800D03*
X2256000Y248800D03*
D15*
X2333890Y233680D03*
X2344790Y233680D03*
D18*
X473750Y810560D03*
X468750Y810560D03*
X463750Y810560D03*
X458750Y810560D03*
X478750Y810560D03*
X483750Y810560D03*
X488750Y810560D03*
X493750Y810560D03*
D19*
X452250Y810560D03*
X444250Y810560D03*
X500250Y810560D03*
X508250Y810560D03*
D20*
X433050Y811310D02*
X433050Y821310D01*
X519450Y821310D02*
X519450Y811310D01*
X433050Y852810D02*
X433050Y862810D01*
X519450Y862810D02*
X519450Y852810D01*
D21*
X447350Y821300D03*
X505150Y821300D03*
D22*
X285750Y476250D03*
X666750Y666750D03*
X666750Y285750D03*
X1238250Y476250D03*
X1809750Y666750D03*
X1809750Y285750D03*
X2190750Y476250D03*
D23*
X542810Y843280D03*
X534150Y843280D03*
X409690Y843280D03*
X418350Y843280D03*
D24*
X456250Y511250D03*
X451250Y511250D03*
X461250Y511250D03*
X466250Y511250D03*
X471250Y511250D03*
X476250Y511250D03*
X481250Y511250D03*
X486250Y511250D03*
X491250Y511250D03*
X496250Y511250D03*
X501250Y511250D03*
D25*
X511250Y501250D03*
X511250Y496250D03*
X511250Y491250D03*
X511250Y486250D03*
X511250Y481250D03*
X511250Y476250D03*
X511250Y471250D03*
X511250Y466250D03*
X511250Y461250D03*
X511250Y456250D03*
X511250Y451250D03*
D24*
X501250Y441250D03*
X496250Y441250D03*
X491250Y441250D03*
X486250Y441250D03*
X481250Y441250D03*
X476250Y441250D03*
X471250Y441250D03*
X466250Y441250D03*
X461250Y441250D03*
X456250Y441250D03*
X451250Y441250D03*
D25*
X441250Y451250D03*
X441250Y456250D03*
X441250Y461250D03*
X441250Y466250D03*
X441250Y471250D03*
X441250Y476250D03*
X441250Y481250D03*
X441250Y486250D03*
X441250Y491250D03*
X441250Y496250D03*
X441250Y501250D03*
D26*
X476250Y476250D03*
D23*
X482600Y766330D03*
X482600Y757670D03*
X469900Y766330D03*
X469900Y757670D03*
X530860Y490810D03*
X530860Y499470D03*
D17*
X472440Y538850D03*
X472440Y527950D03*
D27*
X618060Y476640D03*
X596060Y476640D03*
X596060Y493640D03*
X618060Y493640D03*
D17*
X633420Y496850D03*
X633420Y485950D03*
X580860Y494580D03*
X580860Y483680D03*
D15*
X503820Y429260D03*
X514720Y429260D03*
D17*
X431720Y442610D03*
X431720Y431710D03*
D15*
X427090Y501650D03*
X416190Y501650D03*
D17*
X454660Y530490D03*
X454660Y541390D03*
D23*
X413270Y464820D03*
X404610Y464820D03*
D28*
X849310Y710640D03*
X849310Y700640D03*
X849310Y690640D03*
X849310Y680640D03*
X849310Y670640D03*
X849310Y660640D03*
X849310Y650640D03*
X849310Y640640D03*
D29*
X888060Y627640D03*
X888060Y723640D03*
D30*
X558800Y499370D03*
X558800Y455670D03*
D31*
X121920Y820420D03*
X236220Y805180D03*
X312420Y820420D03*
X411480Y833120D03*
X693420Y820420D03*
X561340Y839470D03*
X617220Y805180D03*
X807720Y805180D03*
X883920Y820420D03*
X998220Y805180D03*
X1074420Y820420D03*
X1188720Y805180D03*
X1264920Y820420D03*
X1379220Y805180D03*
X1455420Y820420D03*
X1569720Y805180D03*
X1645920Y820420D03*
X1760220Y805180D03*
X1836420Y820420D03*
X1950720Y805180D03*
X2026920Y820420D03*
X2141220Y805180D03*
X2217420Y820420D03*
X2331720Y805180D03*
X2354580Y614680D03*
X2240280Y629920D03*
X2164080Y614680D03*
X2049780Y629920D03*
X1974850Y614680D03*
X1859280Y629920D03*
X1783080Y614680D03*
X1668780Y629920D03*
X1592580Y614680D03*
X1402080Y614680D03*
X1287780Y629920D03*
X1478280Y629920D03*
X1212850Y614680D03*
X1097280Y629920D03*
X1021080Y614680D03*
X906780Y629920D03*
X831850Y614680D03*
X716280Y629920D03*
X641350Y614680D03*
X525780Y629920D03*
X450850Y614680D03*
X335280Y629920D03*
X259080Y614680D03*
X144780Y629920D03*
X236220Y424180D03*
X312420Y439420D03*
X617220Y424180D03*
X693420Y439420D03*
X807720Y424180D03*
X883920Y439420D03*
X998220Y424180D03*
X1073150Y439420D03*
X1188720Y424180D03*
X1264920Y439420D03*
X1379220Y424180D03*
X1455420Y439420D03*
X1569720Y424180D03*
X1645920Y439420D03*
X1760220Y424180D03*
X1836420Y439420D03*
X1950720Y424180D03*
X2026920Y439420D03*
X2141220Y424180D03*
X2217420Y439420D03*
X2331720Y424180D03*
X2355850Y233680D03*
X2240280Y248920D03*
X2165350Y233680D03*
X2049780Y248920D03*
X1974850Y233680D03*
X1859280Y248920D03*
X1784350Y233680D03*
X1668780Y248920D03*
X1593850Y233680D03*
X1478280Y248920D03*
X1308100Y233680D03*
X1191260Y248920D03*
X1022350Y233680D03*
X906780Y248920D03*
X831850Y233680D03*
X716280Y248920D03*
X641350Y233680D03*
X525780Y248920D03*
X450850Y233680D03*
X335280Y248920D03*
X260350Y233680D03*
X144780Y248920D03*
X476250Y476250D03*
X458470Y476250D03*
X458470Y458470D03*
X458470Y494030D03*
X476250Y458470D03*
X494030Y458470D03*
X476250Y494030D03*
X494030Y494030D03*
X494030Y476250D03*
X538480Y449580D03*
X513080Y436880D03*
X441960Y436880D03*
X407670Y501650D03*
X454660Y551180D03*
X478790Y547370D03*
X416560Y414020D03*
X132080Y429260D03*
X569706Y483362D03*
X607060Y485140D03*
X632460Y506730D03*
X865766Y702684D03*
X149860Y831850D03*
X337820Y831850D03*
X461010Y797560D03*
X491490Y797560D03*
X518160Y833120D03*
X721360Y831850D03*
X911860Y831850D03*
X1102360Y831850D03*
X1292860Y831850D03*
X1483360Y831850D03*
X1673860Y831850D03*
X1864360Y831850D03*
X2054860Y831850D03*
X2245360Y831850D03*
X2326640Y604520D03*
X2136140Y604520D03*
X1945640Y604520D03*
X1755140Y604520D03*
X1564640Y604520D03*
X1374140Y604520D03*
X1183640Y604520D03*
X993140Y604520D03*
X802640Y604520D03*
X612140Y604520D03*
X421640Y604520D03*
X231140Y604520D03*
X340360Y450850D03*
X721360Y450850D03*
X149860Y450850D03*
X911860Y450850D03*
X1102360Y450850D03*
X1292860Y450850D03*
X1483360Y450850D03*
X1673860Y450850D03*
X1864360Y450850D03*
X2054860Y450850D03*
X2245360Y450850D03*
X2326640Y223520D03*
X2136140Y223520D03*
X1945640Y223520D03*
X1755140Y223520D03*
X1564640Y223520D03*
X1280160Y223520D03*
X993140Y223520D03*
X802640Y223520D03*
X612140Y223520D03*
X421640Y223520D03*
X231140Y223520D03*
X422055Y447455D03*
X500380Y421640D03*
X480060Y525780D03*
X434340Y508000D03*
X447040Y528320D03*
X518181Y421619D03*
X539750Y492358D03*
X863600Y713740D03*
X528320Y797560D03*
X424180Y830580D03*
X470408Y614680D03*
X494284Y614680D03*
X444138Y415040D03*
X508000Y413512D03*
X137160Y416560D03*
X142240Y614680D03*
X822960Y638810D03*
X822960Y487172D03*
X869950Y657860D03*
X869950Y480060D03*
X896620Y315722D03*
X895350Y689610D03*
X441960Y518160D03*
X802640Y680720D03*
X470408Y596120D03*
X494284Y596120D03*
X444138Y406400D03*
X498362Y406400D03*
X421640Y786620D03*
X491490Y786620D03*
X482600Y240912D03*
X482600Y208008D03*
X878840Y297688D03*
X877570Y670560D03*
X861060Y472440D03*
X862330Y650240D03*
M02*
